<svg width="638" height="633" viewBox="0 0 638 633" fill="none" xmlns="http://www.w3.org/2000/svg">
<rect width="638" height="632.354" rx="60" fill="#FDD051"/>
<path d="M84.6984 321.96C199.498 319.68 312.073 322.388 426.576 325.666C433.398 326.379 446.599 324.526 444.819 334.646C446.747 364.15 434.14 388.807 417.083 411.897C393.945 443.967 363.985 470.905 325.718 485.443C322.9 486.014 320.972 488.722 321.417 491.43C321.565 512.382 312.073 533.191 288.49 536.612C269.765 540.455 250.473 541.034 231.535 538.322C206.321 534.474 194.603 517.94 196.087 494.423C196.383 490.432 195.197 489.149 191.489 488.151C146.251 476.606 103.535 448.67 87.2199 405.056C77.4308 380.256 70.3114 355.028 71.053 328.232C71.2013 322.531 71.7946 321.96 77.5791 322.103C80.3972 321.96 83.3636 321.96 84.6984 321.96ZM273.51 484.588C283.447 485.728 285.227 484.731 287.6 476.464C291.16 464.349 296.944 452.946 301.394 440.974C301.69 439.976 302.432 438.978 303.767 439.121C307.326 439.976 303.767 447.103 302.877 449.383C298.872 458.648 295.461 468.197 292.643 477.747C292.198 479.172 291.16 481.025 293.533 482.023C295.906 483.02 300.652 480.74 301.097 478.459C303.767 464.349 309.255 450.951 313.853 437.41C314.594 435.13 314.297 430.569 318.154 431.852C321.565 432.992 319.044 436.698 318.302 439.121C314.742 450.808 309.996 462.068 307.771 474.041C305.398 479.457 309.255 479.885 313.259 476.892C314.891 475.894 314.742 474.326 315.187 472.901C319.34 457.65 323.493 442.257 327.498 427.006C328.388 425.153 328.536 421.162 331.354 421.59C333.431 422.302 332.392 425.01 332.244 426.578C328.684 440.546 324.977 454.657 321.565 468.625C321.12 470.335 319.192 473.186 321.268 473.898C323.938 474.754 326.756 473.043 328.388 470.62C333.579 453.089 336.99 435.13 342.478 417.599C342.923 416.173 343.368 414.178 345.445 414.891C347.521 415.603 346.631 417.314 346.335 418.739L335.211 463.066C334.766 464.776 334.024 466.487 334.914 468.625C337.732 466.914 340.847 466.344 341.588 462.638C345.296 445.25 348.263 427.718 352.861 410.472C353.157 409.332 354.195 408.619 355.382 408.904C357.903 409.474 357.014 412.325 356.569 414.035L347.669 457.507C347.521 458.648 346.186 460.073 347.818 460.786C350.339 461.498 351.822 458.22 352.119 456.367C357.31 437.41 361.018 418.169 365.616 399.07C366.061 397.359 365.764 394.366 368.731 394.936C371.252 395.506 370.214 397.929 369.769 399.64C366.506 416.316 363.54 433.135 358.942 449.668C358.645 450.951 357.607 452.234 358.645 453.516C362.205 451.806 362.501 451.806 363.095 446.532C365.319 428.288 371.104 410.615 373.625 392.371C373.774 391.23 373.774 389.52 375.405 389.663C377.333 389.805 376.888 391.658 377.037 392.941C377.185 403.488 373.625 413.608 371.846 424.013C370.511 431.282 369.472 438.551 368.138 446.39C370.807 445.82 372.735 443.682 373.18 441.116C377.927 421.59 381.338 401.778 387.122 382.536C387.567 381.253 388.309 379.685 390.089 380.398C391.72 381.111 390.682 382.536 390.534 383.676C387.716 396.932 385.046 410.187 382.376 423.3C388.161 405.626 390.385 387.24 396.022 369.566C396.467 368.425 397.06 367 398.691 367.57C400.323 368.14 400.026 369.566 399.581 370.706C394.242 390.803 392.462 409.332 386.678 429.999C390.089 426.721 393.204 424.583 393.649 421.019C395.28 408.192 399.285 395.791 401.658 383.106C403.438 373.699 405.959 364.435 408.184 355.028C408.48 353.602 408.925 351.464 411.002 352.034C413.078 352.605 412.189 354.6 411.892 356.025L403.438 396.076C409.519 383.391 409.519 368.425 414.71 355.313C415.452 353.032 415.452 348.614 418.418 349.469C421.829 350.324 419.011 353.887 418.418 356.168C414.265 372.559 411.15 387.81 407.591 405.056C409.222 403.773 410.26 402.063 410.705 400.067C414.413 381.253 422.126 363.294 424.499 344.195C424.647 342.912 424.796 341.06 426.724 341.345C432.953 343.483 419.753 381.681 418.715 388.665C427.169 374.982 433.102 359.731 433.695 343.625C433.843 339.919 432.657 338.209 428.504 337.924C377.63 335.358 326.756 335.216 275.883 333.79C211.809 332.793 147.734 332.365 83.6602 330.655C80.5455 330.512 79.6556 331.367 80.2489 334.218C83.0669 348.899 85.7367 363.579 89.4447 377.975C100.272 419.879 124.893 450.666 166.719 467.912C174.729 471.19 174.58 471.333 178.882 463.779C180.661 460.786 181.403 457.222 184.518 454.799C184.666 459.788 181.996 464.064 180.216 468.482C179.623 470.05 177.547 471.618 180.216 473.186C182.886 474.754 183.924 472.473 184.963 470.905C188.671 465.632 192.082 460.073 195.197 454.514C196.087 453.089 196.532 450.096 198.608 451.093C200.388 451.949 198.46 454.372 197.718 455.939C194.752 461.498 191.637 467.057 188.671 472.473C187.929 473.898 186.742 475.324 189.116 476.179C190.895 476.892 192.972 478.174 194.455 475.609C199.053 467.77 203.799 460.073 208.397 452.234C209.139 450.951 209.287 448.243 211.66 449.383C213.44 450.238 212.105 452.234 211.512 453.374C207.656 460.643 203.799 467.912 199.795 475.324C199.201 476.606 197.57 478.032 199.795 479.172C201.278 480.17 203.503 479.6 204.244 478.032L219.818 454.087C220.708 452.804 220.708 449.811 222.784 450.808C225.306 451.949 223.081 454.229 222.636 455.939C222.339 456.795 221.894 457.65 221.301 458.363C217.593 464.491 213.737 470.62 210.177 476.892C209.435 478.174 207.211 480.027 210.029 481.453C212.253 482.593 214.182 482.023 215.665 479.742C220.856 471.19 226.047 462.638 231.238 454.229C231.832 453.089 231.98 451.093 233.908 451.806C236.726 452.946 233.315 457.365 232.573 459.075C228.717 465.917 224.861 472.616 221.004 479.457C220.263 480.74 218.483 482.45 221.153 483.59C222.932 484.303 225.009 484.303 225.899 482.023C230.348 470.905 239.396 462.068 243.549 450.951C243.846 450.096 244.439 449.241 245.625 449.383C252.3 450.808 233.612 475.894 232.128 480.74C231.387 482.165 229.755 484.303 232.87 485.158C235.243 485.871 237.913 487.011 239.396 483.733C245.032 472.758 250.817 462.068 256.304 451.093C256.898 449.953 257.639 448.243 259.271 448.955C261.644 450.096 259.716 452.519 259.123 454.229C254.376 462.781 251.262 472.188 246.515 480.74C243.549 486.014 244.439 487.011 250.52 486.869C252.448 487.011 254.228 485.728 254.525 483.876C255.563 481.025 256.898 478.317 258.233 475.466C262.089 467.484 265.797 459.503 269.802 451.521C270.84 449.383 270.098 444.822 273.213 445.677C279.739 446.818 262.831 476.749 261.199 481.025C257.491 486.584 260.606 487.866 266.242 486.584C267.873 486.441 269.208 485.158 269.06 483.59C269.06 481.453 269.505 479.315 270.543 477.319C275.734 467.77 280.481 457.935 284.485 447.815C285.078 446.532 285.672 444.537 287.748 445.535C289.38 446.247 288.786 447.958 288.342 449.098C284.337 460.643 278.849 472.473 273.51 484.588ZM251.41 496.988C248.592 498.271 248.74 500.267 247.999 501.549C246.96 503.117 247.109 506.823 244.439 505.825C240.583 504.115 250.52 496.418 242.066 496.418C230.942 496.133 220.114 493.568 209.139 492.285C207.211 492 204.986 491.145 204.541 494.423C203.206 507.678 211.809 521.646 225.306 525.495C241.769 530.056 258.678 529.913 275.586 527.49C277.811 527.205 279.591 525.637 280.184 523.499C283.002 515.09 285.968 506.823 288.786 498.414C290.715 495.278 287.007 493.995 284.93 496.133C280.926 502.975 279.442 510.956 277.218 518.511C276.476 520.791 275.734 524.782 272.916 524.069C267.577 522.786 277.366 504.543 277.959 500.409C278.404 499.269 280.332 497.416 277.959 496.561C274.993 495.278 272.175 497.559 271.73 500.409C269.06 507.821 266.39 515.375 263.572 522.786C263.127 524.069 262.979 525.922 261.051 525.637C254.97 523.214 266.242 504.97 267.428 500.124C267.873 499.126 268.615 497.701 266.835 496.988C260.457 494.138 258.529 517.228 254.228 516.8C249.333 514.805 256.453 504.543 257.491 501.264C257.936 500.124 259.716 498.699 257.639 497.844C254.821 496.561 252.745 505.255 251.262 507.108C250.668 508.248 250.372 510.101 248.443 509.531C245.18 508.248 250.52 500.267 251.41 496.988ZM296.202 522.644C300.207 512.667 304.212 502.69 308.81 492.998C309.403 491.572 308.513 491.002 307.03 491.287C305.398 491.43 304.063 492.427 303.322 493.853C300.207 502.832 297.241 511.669 294.274 520.649C293.829 521.361 293.533 522.501 296.202 522.644ZM286.858 524.782C287.6 524.639 288.193 523.927 288.342 523.214C290.121 513.95 294.571 505.683 297.537 496.988C297.834 495.991 299.021 494.565 297.241 493.853C296.054 493.425 294.571 493.995 294.126 495.135C291.16 504.257 288.342 513.379 285.523 522.644C285.227 523.784 285.227 524.782 286.858 524.782Z" fill="#3C4041"/>
<path d="M462.022 461.356C463.209 434.417 464.841 404.628 466.62 374.697C467.807 355.455 468.993 336.213 469.883 316.972C470.477 303.431 465.582 292.314 457.276 282.194C448.08 270.649 437.995 259.674 430.282 246.989C388.456 186.128 449.119 93.0557 522.092 127.833C574.152 156.054 580.085 229.885 539 269.794C534.551 274.498 530.843 279.914 526.393 284.617C519.422 291.886 517.197 300.438 516.456 309.988C514.973 330.085 515.269 350.039 515.714 370.136C516.604 400.78 518.236 431.424 519.126 462.068C520.016 479.315 520.905 498.414 509.485 512.952C500.882 523.784 486.495 524.924 476.41 515.232C462.319 499.696 462.171 482.45 462.022 461.356ZM475.52 418.454C479.079 412.468 482.194 407.336 485.16 402.348C485.902 401.208 486.644 399.497 488.275 400.352C489.907 401.208 488.572 402.775 487.978 403.916C483.232 411.47 479.821 419.737 475.965 427.576C474.778 429.856 474.333 432.422 474.778 434.987L485.16 417.314C485.902 416.173 486.495 414.463 488.275 415.461C490.5 416.316 486.792 421.732 486.199 423.3C481.749 430.141 478.783 437.838 475.075 444.965C474.036 446.96 473.591 449.383 474.185 451.521C477.596 444.394 480.414 438.123 483.381 431.994C483.826 430.997 484.419 429.571 486.05 429.999C487.682 430.426 487.237 431.709 486.792 432.707C482.936 441.116 480.266 450.238 474.926 457.935C474.031 459.139 473.398 460.505 473.067 461.95C472.736 463.395 472.712 464.89 472.998 466.344C474.481 465.917 474.481 464.919 474.926 464.064C477.299 458.505 479.821 452.804 482.342 447.245C482.787 446.105 483.381 444.822 485.012 445.392C486.644 445.962 485.902 447.103 485.605 448.1C482.194 456.652 478.931 465.204 475.075 473.471C473.591 476.749 473.74 479.315 475.371 483.305C478.041 477.034 480.117 471.903 482.491 466.772C483.232 465.204 483.381 462.496 486.05 463.494C488.275 464.349 486.94 466.487 486.347 467.912C483.529 474.611 480.711 481.452 477.596 488.151C477.003 489.577 475.816 491.002 477.596 493.283C479.673 488.722 481.304 484.731 483.232 480.882C483.826 479.457 484.122 477.034 486.495 477.889C488.868 478.744 487.385 480.882 486.792 482.308C484.864 487.154 482.936 492 480.859 496.703C479.673 499.411 479.673 501.549 482.194 503.402C485.16 501.264 487.533 485.871 491.686 487.439C493.466 488.151 493.021 489.577 492.576 491.002C490.203 496.846 487.682 501.692 487.533 508.533C490.648 506.11 488.72 499.696 493.021 499.696C497.619 500.552 490.648 509.246 493.615 510.814C494.653 511.384 496.284 511.241 496.729 510.386C498.509 506.68 502.81 505.398 504.739 501.834C512.748 486.156 508.892 467.912 509.04 451.093C508.002 406.766 504.442 362.439 506.815 318.112C507.705 302.149 512.155 287.753 522.537 275.068C534.699 258.962 550.569 243.568 554.129 223.329C565.846 173.728 521.499 108.877 465.286 138.238C421.383 159.475 418.713 218.34 447.487 252.405C454.458 261.527 461.726 270.649 468.845 279.771C470.773 282.337 471.812 287.04 476.706 281.767C477.299 285.187 474.185 287.183 475.075 290.033C478.189 289.463 477.151 283.049 480.711 284.76C483.084 285.9 479.821 289.178 479.228 291.601C478.634 294.024 475.965 296.305 478.338 299.868C479.821 297.16 480.859 294.737 482.194 292.599C482.936 291.316 483.677 288.893 485.902 289.891C487.83 290.889 486.05 292.599 485.457 293.882C483.677 297.873 481.749 301.863 479.969 305.854C481.304 304.857 482.342 303.574 483.232 302.149C484.122 301.008 484.567 298.728 486.495 299.583C488.423 300.438 486.94 302.149 486.347 303.431C484.715 308.42 481.452 311.556 481.601 317.399C482.639 315.832 483.974 314.264 485.309 312.838C486.792 311.556 487.533 307.992 490.203 309.988C492.428 311.556 489.462 313.409 488.423 314.834C482.639 323.243 481.452 326.094 482.046 331.795C484.122 328.232 486.05 324.811 488.127 321.39C488.868 320.25 489.758 318.825 491.538 320.107C492.873 321.105 492.131 322.388 491.39 323.386C487.089 329.229 484.864 336.213 481.749 342.627C481.156 343.91 479.969 345.05 481.304 347.331C483.381 342.912 485.16 339.064 487.089 335.358C487.385 334.646 487.682 333.79 488.72 333.933C492.873 335.073 479.969 356.168 480.117 360.159C483.826 358.591 485.754 344.623 490.203 347.046C492.428 348.471 489.758 350.609 489.165 352.177L478.931 373.414L479.969 373.984C482.194 369.851 484.27 365.717 486.495 361.584C487.089 360.444 487.385 358.448 489.313 359.161C491.538 360.016 490.352 361.727 489.758 363.009C486.347 369.993 483.677 377.405 479.376 383.961C478.486 384.959 478.338 386.527 479.228 387.525C481.601 383.106 483.826 379.115 486.05 375.124C486.792 373.842 487.385 371.846 489.313 372.559C491.686 373.557 490.203 375.409 489.61 376.835C486.05 383.676 482.491 390.375 478.931 397.217C477.596 399.355 477.299 401.92 478.189 404.343C479.376 401.92 486.644 386.099 489.313 387.952C490.5 388.807 489.758 389.805 489.165 390.803C485.754 397.502 482.194 404.058 478.783 410.757C476.41 412.895 475.075 414.891 475.52 418.454ZM239.988 224.612C239.246 213.494 246.366 204.23 251.112 194.68C264.757 170.45 226.787 158.05 241.916 130.826C245.921 120.992 263.571 105.456 259.121 95.1937C255.561 91.9154 261.494 89.2074 263.719 92.4856C265.795 95.6213 266.537 99.4696 265.944 103.175C263.422 121.419 238.06 137.383 253.485 156.054C256.748 160.33 259.714 164.891 262.384 169.595C267.427 178.574 267.724 189.407 262.977 198.529C256.748 211.641 247.7 223.471 256.451 237.725C262.384 248.557 270.838 259.817 266.537 272.645C265.647 275.068 264.757 277.918 261.346 277.918C257.934 277.918 256.6 275.21 256.303 272.645C255.116 260.672 248.739 250.552 243.251 240.148C240.729 235.302 239.543 229.885 239.988 224.612ZM186.148 224.184C186.296 212.782 193.564 203.375 198.31 193.397C210.472 169.31 172.057 157.622 189.559 128.831C194.157 118.996 209.434 106.596 205.874 95.3362C202.166 92.2005 208.099 89.3499 210.324 92.4856C212.4 95.9063 213.29 99.7546 212.549 103.603C209.879 121.134 185.554 136.813 199.348 154.914C202.166 158.905 205.133 162.896 207.654 167.172C213.587 176.721 214.922 186.841 210.176 197.246C202.611 213.494 193.712 224.184 205.133 241.43C211.214 250.837 216.85 262.382 212.994 273.642C212.104 275.78 210.917 277.918 208.099 278.061C204.836 278.203 203.946 275.068 203.056 272.787C201.721 254.828 185.999 241.858 186.148 224.184ZM293.235 224.469C292.641 213.779 299.612 204.657 304.21 195.393C320.08 162.183 267.13 160.9 306.88 113.438C309.846 108.734 315.186 100.752 312.368 95.3362C311.478 94.0534 309.995 92.7706 312.22 91.6304C318.894 88.7798 319.932 100.752 318.894 104.886C315.483 121.847 292.345 137.668 306.138 155.342C309.253 159.618 312.22 163.894 314.889 168.312C320.525 177.291 321.119 188.266 316.521 197.673C309.55 213.067 300.354 223.614 311.033 240.29C317.262 250.267 324.085 262.667 319.042 274.498C318.301 276.35 316.966 278.061 314.593 278.061C310.44 277.633 309.698 272.787 308.808 269.509C307.77 252.975 292.048 241.288 293.235 224.469Z" fill="#3C4041"/>
<path d="M521.647 248.272C531.288 241.43 535.738 209.788 542.412 211.926C544.192 212.497 544.489 214.207 544.34 215.775C544.934 255.256 506.222 295.877 466.324 267.799C447.191 255.968 436.067 230.455 439.182 209.076C439.775 206.368 448.081 191.259 450.306 190.262C447.191 197.531 446.894 205.513 443.483 212.639L444.669 213.209C447.784 206.795 450.306 200.239 453.124 193.682C453.569 192.542 454.014 190.547 455.793 191.259C457.573 191.972 456.387 193.682 455.942 194.823C453.124 202.662 450.157 210.644 447.191 218.483C446.301 220.763 445.708 223.044 448.081 225.609C451.789 216.63 454.607 208.506 458.76 200.096C459.353 198.814 459.946 196.818 462.023 197.816C463.654 198.671 462.468 200.239 462.023 201.522C457.87 210.929 454.459 220.621 451.344 230.313C450.454 232.451 450.602 234.874 451.789 236.869C452.382 237.725 452.53 239.15 453.865 239.007C455.2 238.865 455.052 237.439 455.348 236.442L466.176 204.8C466.917 203.375 467.066 199.954 469.439 200.524C471.812 201.807 469.439 205.227 469.29 207.223C468.549 212.639 453.569 247.559 459.501 247.844C461.281 248.272 461.281 246.419 461.578 245.421C465.286 233.449 470.625 222.046 474.778 210.216C475.223 208.791 475.223 206.225 477.745 206.938C479.97 207.65 478.783 209.931 478.338 211.356C474.482 223.044 470.477 234.731 466.472 246.419C465.879 249.127 463.506 254.116 467.362 255.113C468.994 255.398 469.142 253.545 469.439 252.405C472.257 239.435 477.893 227.32 482.491 214.777C482.936 213.494 483.084 211.071 485.161 211.641C487.534 212.211 486.347 214.492 485.902 215.917C482.491 226.892 478.931 237.725 475.52 248.557C475.223 252.12 471.367 259.247 476.262 260.815C478.635 261.385 478.931 259.389 479.228 257.964C482.639 244.566 487.237 231.453 491.983 218.34C492.428 217.2 492.428 215.205 494.357 215.632C496.136 216.06 495.691 217.913 495.395 219.196C491.687 232.736 487.534 246.134 484.419 259.817C483.974 261.812 483.826 263.95 486.644 264.52C489.462 265.09 489.314 262.667 489.759 261.1C493.318 247.987 496.433 234.874 501.476 222.189C502.069 220.621 501.773 217.77 504.442 218.625C506.815 219.338 505.629 221.761 505.184 223.471C501.921 235.872 497.916 247.987 495.543 260.672C495.246 262.24 493.912 264.663 497.026 265.09C499.844 265.518 501.328 264.093 501.921 261.385C504.887 249.84 507.705 238.295 512.303 227.32C512.748 226.18 513.045 224.184 514.825 224.612C516.604 225.039 516.308 227.035 515.863 228.603C513.341 237.867 510.672 247.132 508.299 256.396C507.854 257.821 506.074 260.102 507.854 260.957C509.633 261.812 511.413 259.674 512.748 258.249C516.901 247.844 519.423 236.727 523.576 226.322C524.02 224.897 524.169 222.759 526.245 223.186C528.322 223.614 527.58 225.609 527.135 227.035C525.652 234.019 523.576 241.145 521.647 248.272Z" fill="#3C4041"/>
</svg>
