<?xml version="1.0" encoding="utf-8"?>
<!-- Generator: Adobe Illustrator 28.2.0, SVG Export Plug-In . SVG Version: 6.00 Build 0)  -->
<svg version="1.1" id="Warstwa_1" xmlns="http://www.w3.org/2000/svg" xmlns:xlink="http://www.w3.org/1999/xlink" x="0px" y="0px"
	 viewBox="0 0 638 633" style="enable-background:new 0 0 638 633;" xml:space="preserve">
<style type="text/css">
	.st0{fill:#FDD051;}
	.st1{fill:#333637;}
</style>
<path class="st0" d="M60,0h518c33.1,0,60,26.9,60,60v512.4c0,33.1-26.9,60-60,60H60c-33.1,0-60-26.9-60-60V60C0,26.9,26.9,0,60,0z"
	/>
<g>
	<g>
		<path class="st1" d="M139.3,321.1c88.2-1.8,174.8,0.3,262.8,2.8c5.2,0.5,15.4-0.9,14,6.9c1.5,22.7-8.2,41.6-21.3,59.4
			c-17.8,24.6-40.8,45.4-70.2,56.5c-2.2,0.4-3.6,2.5-3.3,4.6c0.1,16.1-7.2,32.1-25.3,34.7c-14.4,3-29.2,3.4-43.8,1.3
			c-19.4-3-28.4-15.7-27.2-33.7c0.2-3.1-0.7-4.1-3.5-4.8c-34.8-8.9-67.6-30.3-80.1-63.9c-7.5-19.1-13-38.5-12.4-59
			c0.1-4.4,0.6-4.8,5-4.7C136,321.1,138.3,321.1,139.3,321.1z M284.4,446.1c7.6,0.9,9,0.1,10.8-6.2c2.7-9.3,7.2-18.1,10.6-27.3
			c0.2-0.8,0.8-1.5,1.8-1.4c2.7,0.7,0,6.1-0.7,7.9c-3.1,7.1-5.7,14.5-7.9,21.8c-0.3,1.1-1.1,2.5,0.7,3.3c1.8,0.8,5.5-1,5.8-2.7
			c2.1-10.8,6.3-21.1,9.8-31.6c0.6-1.8,0.3-5.3,3.3-4.3c2.6,0.9,0.7,3.7,0.1,5.6c-2.7,9-6.4,17.6-8.1,26.8c-1.8,4.2,1.1,4.5,4.2,2.2
			c1.3-0.8,1.1-2,1.5-3.1c3.2-11.7,6.4-23.6,9.5-35.3c0.7-1.4,0.8-4.5,3-4.2c1.6,0.5,0.8,2.6,0.7,3.8c-2.7,10.7-5.6,21.6-8.2,32.3
			c-0.3,1.3-1.8,3.5-0.2,4.1c2.1,0.7,4.2-0.7,5.5-2.5c4-13.5,6.6-27.3,10.8-40.8c0.3-1.1,0.7-2.6,2.3-2.1c1.6,0.5,0.9,1.9,0.7,3
			l-8.5,34.1c-0.3,1.3-0.9,2.6-0.2,4.3c2.2-1.3,4.6-1.8,5.1-4.6c2.8-13.4,5.1-26.8,8.7-40.1c0.2-0.9,1-1.4,1.9-1.2
			c1.9,0.4,1.3,2.6,0.9,3.9l-6.8,33.4c-0.1,0.9-1.1,2,0.1,2.5c1.9,0.5,3.1-2,3.3-3.4c4-14.6,6.8-29.4,10.4-44
			c0.3-1.3,0.1-3.6,2.4-3.2c1.9,0.4,1.1,2.3,0.8,3.6c-2.5,12.8-4.8,25.7-8.3,38.5c-0.2,1-1,2-0.2,3c2.7-1.3,3-1.3,3.4-5.4
			c1.7-14,6.2-27.6,8.1-41.6c0.1-0.9,0.1-2.2,1.4-2.1c1.5,0.1,1.1,1.5,1.3,2.5c0.1,8.1-2.6,15.9-4,23.9c-1,5.6-1.8,11.2-2.8,17.2
			c2.1-0.4,3.5-2.1,3.9-4.1c3.6-15,6.3-30.2,10.7-45c0.3-1,0.9-2.2,2.3-1.6c1.3,0.5,0.5,1.6,0.3,2.5c-2.2,10.2-4.2,20.4-6.3,30.5
			c4.4-13.6,6.2-27.7,10.5-41.3c0.3-0.9,0.8-2,2.1-1.5c1.3,0.4,1,1.5,0.7,2.4c-4.1,15.4-5.5,29.7-9.9,45.6c2.6-2.5,5-4.2,5.4-6.9
			c1.3-9.9,4.3-19.4,6.2-29.1c1.4-7.2,3.3-14.4,5-21.6c0.2-1.1,0.6-2.7,2.2-2.3c1.6,0.4,0.9,2,0.7,3.1l-6.5,30.8
			c4.7-9.7,4.7-21.3,8.7-31.3c0.6-1.8,0.6-5.1,2.8-4.5c2.6,0.7,0.5,3.4,0,5.1c-3.2,12.6-5.6,24.3-8.3,37.6c1.3-1,2.1-2.3,2.4-3.8
			c2.8-14.5,8.8-28.3,10.6-42.9c0.1-1,0.2-2.4,1.7-2.2c4.8,1.6-5.4,31-6.2,36.4c6.5-10.5,11.1-22.2,11.5-34.6c0.1-2.8-0.8-4.2-4-4.4
			c-39.1-2-78.2-2.1-117.3-3.2c-49.2-0.8-98.5-1.1-147.7-2.4c-2.4-0.1-3.1,0.5-2.6,2.7c2.2,11.3,4.2,22.6,7.1,33.6
			c8.3,32.2,27.2,55.9,59.4,69.1c6.2,2.5,6,2.6,9.3-3.2c1.4-2.3,1.9-5,4.3-6.9c0.1,3.8-1.9,7.1-3.3,10.5c-0.5,1.2-2.1,2.4,0,3.6
			c2.1,1.2,2.8-0.5,3.6-1.8c2.8-4.1,5.5-8.3,7.9-12.6c0.7-1.1,1-3.4,2.6-2.6c1.4,0.7-0.1,2.5-0.7,3.7c-2.3,4.3-4.7,8.5-7,12.7
			c-0.6,1.1-1.5,2.2,0.3,2.8c1.4,0.5,3,1.5,4.1-0.4c3.5-6,7.2-11.9,10.7-18c0.6-1,0.7-3.1,2.5-2.2c1.4,0.7,0.3,2.2-0.1,3.1
			c-3,5.6-5.9,11.2-9,16.9c-0.5,1-1.7,2.1,0,3c1.1,0.8,2.8,0.3,3.4-0.9l12-18.4c0.7-1,0.7-3.3,2.3-2.5c1.9,0.9,0.2,2.6-0.1,3.9
			c-0.2,0.7-0.6,1.3-1,1.9c-2.8,4.7-5.8,9.4-8.5,14.2c-0.6,1-2.3,2.4-0.1,3.5c1.7,0.9,3.2,0.4,4.3-1.3c4-6.6,8-13.1,12-19.6
			c0.5-0.9,0.6-2.4,2.1-1.9c2.2,0.9-0.5,4.3-1,5.6c-3,5.3-5.9,10.4-8.9,15.7c-0.6,1-1.9,2.3,0.1,3.2c1.4,0.5,3,0.5,3.6-1.2
			c3.4-8.5,10.4-15.3,13.6-23.9c0.2-0.7,0.7-1.3,1.6-1.2c5.1,1.1-9.2,20.4-10.4,24.1c-0.6,1.1-1.8,2.7,0.6,3.4
			c1.8,0.5,3.9,1.4,5-1.1c4.3-8.4,8.8-16.7,13-25.1c0.5-0.9,1-2.2,2.3-1.6c1.8,0.9,0.3,2.7-0.1,4.1c-3.6,6.6-6,13.8-9.7,20.4
			c-2.3,4.1-1.6,4.8,3.1,4.7c1.5,0.1,2.8-0.9,3.1-2.3c0.8-2.2,1.8-4.3,2.8-6.5c3-6.1,5.8-12.3,8.9-18.4c0.8-1.6,0.2-5.1,2.6-4.5
			c5,0.9-8,23.9-9.2,27.2c-2.9,4.3-0.5,5.3,3.9,4.3c1.3-0.1,2.3-1.1,2.2-2.3c0-1.6,0.3-3.3,1.1-4.8c4-7.3,7.6-14.9,10.7-22.7
			c0.5-1,0.9-2.5,2.5-1.8c1.3,0.5,0.8,1.9,0.5,2.7C292.7,427.7,288.5,436.8,284.4,446.1z M267.4,455.7c-2.2,1-2.1,2.5-2.6,3.5
			c-0.8,1.2-0.7,4.1-2.7,3.3c-3-1.3,4.7-7.2-1.8-7.2c-8.5-0.2-16.9-2.2-25.3-3.2c-1.5-0.2-3.2-0.9-3.5,1.6c-1,10.2,5.6,20.9,16,23.9
			c12.7,3.5,25.6,3.4,38.6,1.5c1.7-0.2,3.1-1.4,3.5-3.1c2.2-6.5,4.4-12.8,6.6-19.3c1.5-2.4-1.4-3.4-3-1.8
			c-3.1,5.3-4.2,11.4-5.9,17.2c-0.6,1.8-1.1,4.8-3.3,4.3c-4.1-1,3.4-15,3.9-18.2c0.3-0.9,1.8-2.3,0-3c-2.3-1-4.4,0.8-4.8,3
			c-2.1,5.7-4.1,11.5-6.3,17.2c-0.3,1-0.5,2.4-1.9,2.2c-4.7-1.9,4-15.9,4.9-19.6c0.3-0.8,0.9-1.9-0.5-2.4
			c-4.9-2.2-6.4,15.6-9.7,15.2c-3.8-1.5,1.7-9.4,2.5-11.9c0.3-0.9,1.7-2,0.1-2.6c-2.2-1-3.8,5.7-4.9,7.1c-0.5,0.9-0.7,2.3-2.2,1.9
			C262.6,464.3,266.8,458.2,267.4,455.7z M301.9,475.4c3.1-7.7,6.2-15.3,9.7-22.8c0.5-1.1-0.2-1.5-1.4-1.3c-1.3,0.1-2.3,0.9-2.9,2
			c-2.4,6.9-4.7,13.7-7,20.6C300,474.4,299.8,475.3,301.9,475.4z M294.7,477c0.6-0.1,1-0.7,1.1-1.2c1.4-7.1,4.8-13.5,7.1-20.2
			c0.2-0.8,1.1-1.9-0.2-2.4c-0.9-0.3-2.1,0.1-2.4,1c-2.3,7-4.4,14-6.6,21.1C293.4,476.3,293.4,477,294.7,477z"/>
		<path class="st1" d="M429.3,428.3c0.9-20.7,2.2-43.6,3.5-66.6c0.9-14.8,1.8-29.6,2.5-44.4c0.5-10.4-3.3-19-9.7-26.7
			c-7.1-8.9-14.8-17.3-20.7-27.1c-32.1-46.8,14.5-118.3,70.6-91.6c40,21.7,44.6,78.4,13,109.1c-3.4,3.6-6.3,7.8-9.7,11.4
			c-5.4,5.6-7.1,12.2-7.6,19.5c-1.1,15.4-0.9,30.8-0.6,46.2c0.7,23.6,1.9,47.1,2.6,70.7c0.7,13.3,1.4,27.9-7.4,39.1
			c-6.6,8.3-17.7,9.2-25.4,1.8C429.5,457.8,429.4,444.5,429.3,428.3z M439.7,395.3c2.7-4.6,5.1-8.5,7.4-12.4
			c0.6-0.9,1.1-2.2,2.4-1.5c1.3,0.7,0.2,1.9-0.2,2.7c-3.6,5.8-6.3,12.2-9.2,18.2c-0.9,1.8-1.3,3.7-0.9,5.7l8-13.6
			c0.6-0.9,1-2.2,2.4-1.4c1.7,0.7-1.1,4.8-1.6,6c-3.4,5.3-5.7,11.2-8.5,16.7c-0.8,1.5-1.1,3.4-0.7,5c2.6-5.5,4.8-10.3,7.1-15
			c0.3-0.8,0.8-1.9,2.1-1.5c1.3,0.3,0.9,1.3,0.6,2.1c-3,6.5-5,13.5-9.1,19.4c-0.7,0.9-1.2,2-1.4,3.1s-0.3,2.3-0.1,3.4
			c1.1-0.3,1.1-1.1,1.5-1.8c1.8-4.3,3.8-8.7,5.7-12.9c0.3-0.9,0.8-1.9,2.1-1.4c1.3,0.4,0.7,1.3,0.5,2.1c-2.6,6.6-5.1,13.1-8.1,19.5
			c-1.1,2.5-1,4.5,0.2,7.6c2.1-4.8,3.6-8.8,5.5-12.7c0.6-1.2,0.7-3.3,2.7-2.5c1.7,0.7,0.7,2.3,0.2,3.4c-2.2,5.1-4.3,10.4-6.7,15.6
			c-0.5,1.1-1.4,2.2,0,3.9c1.6-3.5,2.8-6.6,4.3-9.5c0.5-1.1,0.7-3,2.5-2.3c1.8,0.7,0.7,2.3,0.2,3.4c-1.5,3.7-3,7.4-4.6,11.1
			c-0.9,2.1-0.9,3.7,1,5.1c2.3-1.6,4.1-13.5,7.3-12.3c1.4,0.5,1,1.6,0.7,2.7c-1.8,4.5-3.8,8.2-3.9,13.5c2.4-1.9,0.9-6.8,4.2-6.8
			c3.5,0.7-1.8,7.3,0.5,8.5c0.8,0.4,2.1,0.3,2.4-0.3c1.4-2.8,4.7-3.8,6.2-6.6c6.2-12.1,3.2-26.1,3.3-39
			c-0.8-34.1-3.5-68.1-1.7-102.2c0.7-12.3,4.1-23.3,12.1-33.1c9.3-12.4,21.5-24.2,24.3-39.8c9-38.1-25.1-88-68.3-65.4
			c-33.7,16.3-35.8,61.6-13.7,87.7c5.4,7,10.9,14,16.4,21c1.5,2,2.3,5.6,6,1.5c0.5,2.6-1.9,4.2-1.3,6.4c2.4-0.4,1.6-5.4,4.3-4.1
			c1.8,0.9-0.7,3.4-1.1,5.3c-0.5,1.9-2.5,3.6-0.7,6.4c1.1-2.1,1.9-3.9,3-5.6c0.6-1,1.1-2.8,2.9-2.1c1.5,0.8,0.1,2.1-0.3,3.1
			c-1.4,3.1-2.8,6.1-4.2,9.2c1-0.8,1.8-1.8,2.5-2.8c0.7-0.9,1-2.6,2.5-2c1.5,0.7,0.3,2-0.1,3c-1.3,3.8-3.8,6.2-3.6,10.7
			c0.8-1.2,1.8-2.4,2.8-3.5c1.1-1,1.7-3.7,3.8-2.2c1.7,1.2-0.6,2.6-1.4,3.7c-4.4,6.5-5.4,8.7-4.9,13c1.6-2.7,3.1-5.4,4.7-8
			c0.6-0.9,1.3-2,2.6-1c1,0.8,0.5,1.8-0.1,2.5c-3.3,4.5-5,9.9-7.4,14.8c-0.5,1-1.4,1.9-0.3,3.6c1.6-3.4,3-6.4,4.4-9.2
			c0.2-0.5,0.5-1.2,1.3-1.1c3.2,0.9-6.7,17.1-6.6,20.2c2.9-1.2,4.3-11.9,7.8-10.1c1.7,1.1-0.3,2.7-0.8,3.9l-7.9,16.3l0.8,0.4
			c1.7-3.2,3.3-6.4,5-9.5c0.5-0.9,0.7-2.4,2.2-1.9c1.7,0.7,0.8,2,0.3,3c-2.6,5.4-4.7,11.1-8,16.1c-0.7,0.8-0.8,2-0.1,2.7
			c1.8-3.4,3.5-6.5,5.2-9.5c0.6-1,1-2.5,2.5-2c1.8,0.8,0.7,2.2,0.2,3.3c-2.7,5.3-5.5,10.4-8.2,15.7c-1,1.6-1.3,3.6-0.6,5.5
			c0.9-1.9,6.5-14,8.5-12.6c0.9,0.7,0.3,1.4-0.1,2.2c-2.6,5.1-5.4,10.2-8,15.3C440.4,391,439.3,392.6,439.7,395.3z M258.7,246.3
			c-0.6-8.5,4.9-15.7,8.5-23c10.5-18.6-18.7-28.2-7.1-49.1c3.1-7.6,16.6-19.5,13.2-27.4c-2.7-2.5,1.8-4.6,3.5-2.1
			c1.6,2.4,2.2,5.4,1.7,8.2c-1.9,14-21.4,26.3-9.6,40.6c2.5,3.3,4.8,6.8,6.8,10.4c3.9,6.9,4.1,15.2,0.5,22.2
			c-4.8,10.1-11.7,19.2-5,30.1c4.6,8.3,11.1,17,7.8,26.8c-0.7,1.9-1.4,4.1-4,4.1c-2.6,0-3.6-2.1-3.9-4.1c-0.9-9.2-5.8-17-10-25
			C259.2,254.5,258.3,250.4,258.7,246.3z M217.3,246c0.1-8.8,5.7-16,9.3-23.7c9.3-18.5-20.2-27.5-6.7-49.6
			c3.5-7.6,15.3-17.1,12.5-25.7c-2.8-2.4,1.7-4.6,3.4-2.2c1.6,2.6,2.3,5.6,1.7,8.5c-2.1,13.5-20.7,25.5-10.1,39.4
			c2.2,3.1,4.4,6.1,6.4,9.4c4.6,7.3,5.6,15.1,1.9,23.1c-5.8,12.5-12.7,20.7-3.9,34c4.7,7.2,9,16.1,6,24.8c-0.7,1.6-1.6,3.3-3.8,3.4
			c-2.5,0.1-3.2-2.3-3.9-4.1C229.2,269.5,217.2,259.6,217.3,246z M299.6,246.2c-0.5-8.2,4.9-15.2,8.4-22.3
			c12.2-25.5-28.5-26.5,2.1-63c2.3-3.6,6.4-9.8,4.2-13.9c-0.7-1-1.8-2-0.1-2.8c5.1-2.2,5.9,7,5.1,10.2c-2.6,13-20.4,25.2-9.8,38.8
			c2.4,3.3,4.7,6.6,6.7,10c4.3,6.9,4.8,15.3,1.3,22.6c-5.4,11.8-12.4,19.9-4.2,32.8c4.8,7.7,10,17.2,6.2,26.3
			c-0.6,1.4-1.6,2.7-3.4,2.7c-3.2-0.3-3.8-4.1-4.4-6.6C310.8,268.1,298.7,259.1,299.6,246.2z"/>
	</g>
	<path class="st1" d="M475.1,264.5c7.4-5.3,10.8-29.6,16-27.9c1.4,0.4,1.6,1.8,1.5,3c0.5,30.3-29.3,61.6-60,40
		c-14.7-9.1-23.3-28.7-20.9-45.1c0.5-2.1,6.8-13.7,8.5-14.5c-2.4,5.6-2.6,11.7-5.2,17.2l0.9,0.4c2.4-4.9,4.3-10,6.5-15
		c0.3-0.9,0.7-2.4,2.1-1.9c1.4,0.5,0.5,1.9,0.1,2.7c-2.2,6-4.4,12.2-6.7,18.2c-0.7,1.8-1.1,3.5,0.7,5.5c2.9-6.9,5-13.1,8.2-19.6
		c0.5-1,0.9-2.5,2.5-1.8c1.3,0.7,0.3,1.9,0,2.8c-3.2,7.2-5.8,14.7-8.2,22.1c-0.7,1.6-0.6,3.5,0.3,5c0.5,0.7,0.6,1.8,1.6,1.6
		c1-0.1,0.9-1.2,1.1-2l8.3-24.3c0.6-1.1,0.7-3.7,2.5-3.3c1.8,1,0,3.6-0.1,5.1c-0.6,4.2-12.1,31-7.5,31.2c1.4,0.3,1.4-1.1,1.6-1.9
		c2.8-9.2,7-18,10.1-27.1c0.3-1.1,0.3-3.1,2.3-2.5c1.7,0.5,0.8,2.3,0.5,3.4c-3,9-6,18-9.1,26.9c-0.5,2.1-2.3,5.9,0.7,6.7
		c1.3,0.2,1.4-1.2,1.6-2.1c2.2-10,6.5-19.3,10-28.9c0.3-1,0.5-2.8,2.1-2.4c1.8,0.4,0.9,2.2,0.6,3.3c-2.6,8.4-5.4,16.8-8,25.1
		c-0.2,2.7-3.2,8.2,0.6,9.4c1.8,0.4,2.1-1.1,2.3-2.2c2.6-10.3,6.2-20.4,9.8-30.5c0.3-0.9,0.3-2.4,1.8-2.1c1.4,0.3,1,1.8,0.8,2.7
		c-2.8,10.4-6,20.7-8.4,31.2c-0.3,1.5-0.5,3.2,1.7,3.6c2.2,0.4,2.1-1.4,2.4-2.6c2.7-10.1,5.1-20.2,9-29.9c0.5-1.2,0.2-3.4,2.3-2.7
		c1.8,0.5,0.9,2.4,0.6,3.7c-2.5,9.5-5.6,18.8-7.4,28.6c-0.2,1.2-1.3,3.1,1.1,3.4c2.2,0.3,3.3-0.8,3.8-2.8c2.3-8.9,4.4-17.7,8-26.2
		c0.3-0.9,0.6-2.4,1.9-2.1c1.4,0.3,1.1,1.9,0.8,3.1c-1.9,7.1-4,14.2-5.8,21.4c-0.3,1.1-1.7,2.8-0.3,3.5c1.4,0.7,2.7-1,3.8-2.1
		c3.2-8,5.1-16.5,8.3-24.5c0.3-1.1,0.5-2.7,2.1-2.4c1.6,0.3,1,1.9,0.7,3C478.2,253.6,476.6,259,475.1,264.5z"/>
</g>
</svg>
