<svg width="24" height="18" viewBox="0 0 24 18" xmlns="http://www.w3.org/2000/svg">
<path d="M2.79934 9.09213e-05C2.14143 9.09213e-05 1.60089 0.556148 1.60089 1.22885V4.49899C1.61253 5.03242 2.38926 5.03242 2.40091 4.49899V1.22885C2.40091 0.995142 2.57081 0.818153 2.79934 0.818153H15.5993C15.8278 0.818153 16.0017 0.995159 16.0017 1.22885V11.8636C15.9896 12.4213 16.8137 12.4213 16.8017 11.8636V4.09141H21.5994C21.8688 4.09141 21.9458 4.37803 22.0158 4.61632L23.2001 8.65086V13.09H21.5548C21.0496 12.5847 20.3604 12.2719 19.6009 12.2719C18.8413 12.2719 18.1514 12.5847 17.6462 13.09H10.4001C9.85874 13.0823 9.85874 13.9164 10.4001 13.9082H17.0758C16.9019 14.2806 16.8016 14.6948 16.8016 15.1338C16.8016 16.7105 18.0592 17.9998 19.6008 17.9998C21.0059 17.9998 22.171 16.928 22.3671 15.5446H23.6C23.8208 15.5446 24 15.3615 24 15.1355V8.59034C23.9999 8.55055 23.994 8.51104 23.9828 8.47288L22.7634 4.30115C22.5615 3.61033 22.1473 3.27242 21.5993 3.27242H16.8016V1.22876C16.8016 0.555919 16.2571 0 15.5993 0L2.79934 9.09213e-05ZM9.58513 3.68092C9.36971 3.69026 9.19981 3.87119 9.20072 4.09162V6.13612C9.20072 6.68202 10.0016 6.68202 10.0016 6.13612V4.92808L12.546 6.95428L10.0016 8.98049V8.17992C10.0006 7.95352 9.82041 7.77096 9.59916 7.77231H0.80087V6.54667H7.99925C8.53305 6.54667 8.53305 5.72767 7.99925 5.72767H0.398438C0.178516 5.72862 0.000409137 5.91104 2.64024e-06 6.13594V8.17961C-0.000791316 8.40547 0.177581 8.58937 0.398438 8.5903H9.20045V9.81674C9.20178 10.1553 9.58168 10.3457 9.84421 10.1395L13.4464 7.27682C13.6527 7.11308 13.6527 6.79424 13.4464 6.63052L9.84421 3.76786C9.77037 3.70859 9.67854 3.67786 9.58486 3.68084L9.58513 3.68092ZM18 4.90656C17.7778 4.90575 17.5976 5.09006 17.5984 5.31726V7.77245C17.5993 7.99831 17.779 8.18072 18 8.17992H19.0335L19.7155 8.88065C19.791 8.95697 19.893 8.9996 19.9991 8.99892H21.9272C22.1949 8.99906 22.387 8.73558 22.3108 8.47318L21.3515 5.19982C21.3012 5.02593 21.1452 4.90657 20.9679 4.90657L18 4.90656ZM18.3984 5.72473H20.6695L21.3898 8.17992H20.1648L19.4828 7.48245C19.4072 7.4064 19.3052 7.36418 19.1992 7.36499H18.3984L18.3984 5.72473ZM1.99319 9.40314C1.77354 9.40774 1.59848 9.59232 1.60099 9.81695C1.60179 11.5901 1.6002 13.363 1.6002 15.1357C1.6002 15.3617 1.77923 15.5448 2.00022 15.5448H4.03376C4.22986 16.9282 5.39576 18 6.80092 18C8.20608 18 9.3713 16.9282 9.56727 15.5448H15.6C16.1407 15.5525 16.1407 14.7191 15.6 14.7266H9.56795C9.3729 13.3425 8.20672 12.2722 6.80078 12.2722C6.04124 12.2722 5.35132 12.5851 4.84611 13.0904L2.40089 13.0903V9.81692C2.40354 9.58592 2.21895 9.39863 1.99308 9.4031L1.99319 9.40314ZM18 9.81695C17.4551 9.80463 17.4551 10.6472 18 10.6351H18.8009C19.3458 10.6474 19.3458 9.80489 18.8009 9.81695H18ZM6.80104 13.0903C7.9103 13.0903 8.79938 13.9995 8.79938 15.134C8.79938 16.2684 7.9103 17.1817 6.80104 17.1817C5.69177 17.1817 4.80188 16.2684 4.80188 15.134C4.80188 13.9995 5.69177 13.0903 6.80104 13.0903ZM19.601 13.0903C20.7102 13.0903 21.5993 13.9995 21.5993 15.134C21.5993 16.2684 20.7102 17.1817 19.601 17.1817C18.4917 17.1817 17.5986 16.2684 17.5986 15.134C17.5986 13.9995 18.4917 13.0903 19.601 13.0903ZM2.40037 13.9085H4.27618C4.15722 14.1632 4.07386 14.4377 4.03324 14.7266L2.40051 14.7265L2.40037 13.9085ZM6.80104 13.9085C6.14299 13.9085 5.59875 14.4611 5.59875 15.1341C5.59875 15.8071 6.14312 16.3637 6.80104 16.3637C7.45909 16.3637 7.99949 15.807 7.99949 15.1341C7.99949 14.4611 7.45909 13.9085 6.80104 13.9085ZM19.601 13.9085C18.9429 13.9085 18.3987 14.4611 18.3987 15.1341C18.3987 15.8071 18.943 16.3637 19.601 16.3637C20.259 16.3637 20.7994 15.807 20.7994 15.1341C20.7994 14.4611 20.259 13.9085 19.601 13.9085ZM22.1252 13.9085H23.2001V14.7266H22.3681C22.3274 14.4377 22.2441 14.1631 22.1252 13.9085ZM6.80124 14.7266C7.02685 14.7266 7.19967 14.9034 7.19967 15.1341C7.19967 15.3648 7.02686 15.5448 6.80124 15.5448C6.57562 15.5448 6.39884 15.3648 6.39884 15.1341C6.39884 14.9034 6.57549 14.7266 6.80124 14.7266ZM19.6012 14.7266C19.8268 14.7266 19.9996 14.9034 19.9996 15.1341C19.9996 15.3648 19.8268 15.5448 19.6012 15.5448C19.3755 15.5448 19.1996 15.365 19.1996 15.1341C19.1996 14.9034 19.3756 14.7266 19.6012 14.7266Z" />
</svg>
