<svg xmlns="http://www.w3.org/2000/svg" viewBox="0 0 111 100" fill="none" class="login__logo-icon"><path d="M3.049 51.439c25.548-.508 50.6.095 76.083.825 1.518.159 4.456-.254 4.06 2 .429 6.571-2.377 12.063-6.173 17.205-5.15 7.143-11.817 13.143-20.333 16.38-.627.127-1.056.73-.957 1.334.033 4.666-2.08 9.3-7.328 10.063a36.99 36.99 0 0 1-12.675.38c-5.611-.857-8.219-4.539-7.889-9.777.066-.889-.198-1.174-1.023-1.397C16.747 85.883 7.241 79.66 3.61 69.947 1.43 64.422-.153 58.804.012 52.836c.033-1.27.165-1.397 1.452-1.365.627-.032 1.287-.032 1.585-.032Zm42.018 36.22c2.212.254 2.608.032 3.136-1.81.792-2.698 2.08-5.237 3.07-7.904.066-.222.231-.444.528-.412.792.19 0 1.777-.198 2.285a55.724 55.724 0 0 0-2.278 6.317c-.099.318-.33.73.198.953.529.222 1.585-.286 1.684-.794.594-3.143 1.815-6.127 2.839-9.142.165-.508.099-1.524.957-1.238.759.254.198 1.079.033 1.618-.792 2.603-1.849 5.111-2.344 7.778-.528 1.206.33 1.301 1.222.635.363-.222.33-.572.429-.89a1207.4 1207.4 0 0 0 2.74-10.22c.197-.413.23-1.302.858-1.207.462.159.23.762.198 1.111-.793 3.111-1.618 6.254-2.377 9.364-.099.382-.528 1.016-.066 1.175.594.19 1.221-.19 1.584-.73 1.156-3.905 1.915-7.904 3.136-11.809.1-.317.198-.762.66-.603.462.159.264.54.198.857L58.8 82.866c-.1.38-.264.761-.066 1.237.627-.38 1.32-.507 1.485-1.333.825-3.873 1.485-7.777 2.509-11.618.066-.254.297-.413.56-.35.562.128.364.763.265 1.144l-1.98 9.681c-.034.255-.33.572.032.73.562.16.892-.57.958-.983 1.155-4.222 1.98-8.508 3.003-12.762.1-.38.033-1.047.694-.92.56.127.33.667.23 1.047-.726 3.715-1.386 7.46-2.409 11.143-.066.285-.297.571-.066.857.792-.381.858-.381.99-1.556.495-4.063 1.783-8 2.344-12.063.033-.254.033-.634.396-.603.429.032.33.445.363.73.033 2.35-.76 4.603-1.155 6.92-.297 1.62-.528 3.239-.826 4.984a1.447 1.447 0 0 0 1.123-1.174c1.056-4.349 1.815-8.761 3.103-13.047.099-.286.263-.635.66-.476.363.159.132.476.099.73-.627 2.952-1.222 5.904-1.816 8.825 1.287-3.936 1.783-8.031 3.037-11.968.099-.253.231-.571.594-.444.363.127.297.444.198.698-1.188 4.476-1.584 8.603-2.872 13.206.76-.73 1.453-1.206 1.552-2 .363-2.857 1.254-5.619 1.782-8.444.396-2.095.957-4.158 1.453-6.254.066-.317.165-.793.627-.666.462.127.264.571.198.889l-1.882 8.92c1.354-2.825 1.354-6.158 2.509-9.079.165-.508.165-1.492.825-1.301.76.19.132.984 0 1.491-.924 3.651-1.617 7.048-2.41 10.889.364-.286.595-.667.694-1.111.825-4.19 2.541-8.19 3.07-12.444.032-.286.065-.698.495-.635 1.386.476-1.552 8.984-1.783 10.54 1.882-3.048 3.202-6.445 3.334-10.032.033-.825-.231-1.206-1.155-1.27-11.322-.571-22.644-.603-33.965-.92-14.26-.223-28.52-.318-42.779-.699-.693-.032-.89.159-.759.794.627 3.27 1.222 6.54 2.047 9.745 2.41 9.333 7.889 16.19 17.197 20.03 1.782.73 1.75.763 2.707-.92.396-.666.56-1.46 1.254-2 .033 1.111-.561 2.064-.957 3.048-.133.349-.595.698 0 1.047.594.35.825-.158 1.056-.507a42.402 42.402 0 0 0 2.277-3.651c.198-.318.297-.984.76-.762.396.19-.034.73-.198 1.08-.66 1.237-1.354 2.475-2.014 3.682-.165.317-.43.635.099.825.396.159.858.444 1.188-.127 1.023-1.746 2.08-3.46 3.103-5.206.165-.286.198-.889.726-.635.396.19.1.635-.033.889a720.71 720.71 0 0 1-2.607 4.889c-.132.285-.495.603 0 .857.33.222.825.095.99-.254l3.466-5.333c.198-.286.198-.953.66-.73.56.254.066.761-.033 1.142-.066.19-.165.381-.297.54-.825 1.365-1.684 2.73-2.476 4.127-.165.285-.66.698-.033 1.016.495.254.924.127 1.254-.381 1.156-1.905 2.311-3.81 3.466-5.683.132-.254.165-.698.594-.54.628.255-.132 1.239-.297 1.62-.858 1.523-1.716 3.015-2.574 4.54-.165.285-.561.666.033.92.396.158.858.158 1.056-.35.99-2.475 3.004-4.444 3.928-6.92.066-.19.198-.38.462-.349 1.485.317-2.674 5.904-3.004 6.984-.165.317-.528.793.165.984.528.159 1.123.412 1.453-.318 1.254-2.444 2.541-4.825 3.763-7.269.132-.254.297-.635.66-.476.528.254.099.793-.033 1.174-1.056 1.905-1.75 4-2.806 5.905-.66 1.174-.462 1.396.891 1.365.43.031.825-.254.892-.667.23-.635.528-1.238.825-1.873.858-1.777 1.683-3.555 2.574-5.333.231-.476.066-1.492.76-1.301 1.452.254-2.311 6.92-2.674 7.872-.825 1.238-.132 1.524 1.122 1.238.363-.031.66-.317.627-.666 0-.477.1-.953.33-1.397 1.156-2.127 2.212-4.317 3.103-6.571.132-.286.264-.73.726-.508.363.159.231.54.132.794-.891 2.57-2.112 5.206-3.3 7.904ZM40.15 90.42c-.627.285-.594.73-.759 1.015-.23.35-.198 1.175-.792.953-.858-.381 1.353-2.095-.528-2.095-2.476-.064-4.885-.635-7.328-.92-.429-.064-.924-.255-1.023.475-.297 2.952 1.617 6.063 4.62 6.92 3.665 1.016 7.428.984 11.19.445a1.217 1.217 0 0 0 1.024-.889c.627-1.873 1.287-3.714 1.914-5.587.43-.698-.396-.984-.858-.508-.891 1.524-1.221 3.301-1.716 4.984-.165.508-.33 1.397-.958 1.238-1.188-.286.99-4.349 1.123-5.27.099-.254.528-.666 0-.857-.66-.285-1.288.223-1.387.858-.594 1.65-1.188 3.333-1.815 4.983-.1.286-.132.699-.561.635-1.354-.54 1.155-4.603 1.42-5.682.098-.222.263-.54-.133-.698-1.42-.635-1.848 4.507-2.806 4.412-1.089-.444.496-2.73.727-3.46.099-.254.495-.572.033-.762-.628-.286-1.09 1.65-1.42 2.063-.132.254-.198.667-.627.54-.726-.286.462-2.063.66-2.793Zm9.969 5.714c.89-2.223 1.782-4.445 2.805-6.603.132-.318-.066-.445-.396-.381-.363.032-.66.254-.825.571-.693 2-1.353 3.968-2.013 5.968-.1.159-.166.413.429.445Zm-2.08.476c.165-.032.297-.19.33-.35.396-2.063 1.387-3.904 2.047-5.84.066-.223.33-.54-.066-.699-.264-.095-.594.032-.693.286a335.365 335.365 0 0 0-1.915 6.127c-.066.253-.066.476.297.476Z" fill="#ffffff"/><path d="M87.02 82.485c.264-6 .627-12.635 1.023-19.3.264-4.286.528-8.572.726-12.857.132-3.016-.957-5.492-2.805-7.746-2.047-2.571-4.291-5.015-6.008-7.84-9.308-13.556 4.192-34.285 20.432-26.54 11.586 6.286 12.906 22.73 3.763 31.618-.99 1.047-1.815 2.253-2.806 3.3-1.551 1.62-2.046 3.524-2.211 5.651-.33 4.476-.264 8.92-.165 13.396.198 6.825.56 13.65.759 20.475.198 3.841.396 8.095-2.145 11.333-1.915 2.412-5.117 2.666-7.361.508-3.136-3.46-3.169-7.301-3.202-12Zm3.004-9.555c.792-1.334 1.485-2.477 2.145-3.588.165-.253.33-.634.693-.444.364.19.066.54-.066.794-1.056 1.682-1.815 3.523-2.673 5.27-.264.507-.363 1.078-.264 1.65l2.31-3.936c.165-.254.297-.635.693-.413.496.19-.33 1.397-.462 1.746-.99 1.524-1.65 3.238-2.475 4.825-.231.444-.33.984-.198 1.46.759-1.587 1.386-2.984 2.046-4.349.1-.222.231-.54.594-.444.363.095.264.38.165.603-.858 1.873-1.452 3.904-2.64 5.619-.2.268-.34.572-.414.894a2.348 2.348 0 0 0-.015.979c.33-.096.33-.318.429-.508a184.938 184.938 0 0 1 1.65-3.746c.1-.254.231-.54.594-.413.363.127.198.381.132.603-.759 1.905-1.485 3.81-2.343 5.65-.33.73-.297 1.302.066 2.191.594-1.397 1.056-2.54 1.584-3.682.165-.35.198-.953.792-.73.495.19.198.666.066.984-.627 1.492-1.254 3.016-1.947 4.507-.132.318-.396.635 0 1.143.462-1.016.825-1.904 1.254-2.761.132-.318.198-.858.726-.667.528.19.198.666.066.984a93.022 93.022 0 0 1-1.32 3.206c-.264.603-.264 1.08.297 1.492.66-.476 1.188-3.904 2.112-3.555.397.158.298.476.199.793-.528 1.302-1.09 2.381-1.123 3.905.694-.54.264-1.968 1.222-1.968 1.023.19-.528 2.127.132 2.476.23.127.594.095.693-.096.396-.825 1.353-1.11 1.782-1.904 1.783-3.492.925-7.555.958-11.301-.232-9.872-1.024-19.745-.496-29.617.198-3.556 1.189-6.762 3.499-9.587 2.707-3.587 6.239-7.015 7.031-11.523 2.607-11.047-7.262-25.49-19.772-18.951-9.77 4.73-10.364 17.84-3.96 25.427 1.55 2.031 3.168 4.063 4.752 6.095.43.571.66 1.618 1.75.444.132.762-.561 1.206-.363 1.841.693-.127.462-1.555 1.254-1.174.528.254-.198.984-.33 1.523-.132.54-.726 1.048-.198 1.842.33-.604.561-1.143.858-1.62.165-.285.33-.825.825-.603.43.223.033.604-.099.89-.396.888-.825 1.777-1.221 2.666.297-.222.528-.508.726-.826.198-.254.297-.761.726-.571.43.19.1.571-.033.857-.363 1.111-1.089 1.81-1.056 3.111a8.03 8.03 0 0 1 .825-1.016c.33-.285.495-1.08 1.09-.635.495.35-.166.762-.397 1.08-1.287 1.873-1.551 2.507-1.419 3.777.462-.793.891-1.555 1.353-2.317.165-.254.363-.572.76-.286.297.222.132.508-.034.73-.957 1.302-1.452 2.857-2.145 4.286-.132.285-.396.54-.099 1.047.462-.984.858-1.84 1.287-2.666.066-.159.132-.35.363-.318.925.254-1.947 4.952-1.914 5.841.825-.349 1.254-3.46 2.245-2.92.495.317-.1.793-.232 1.143l-2.277 4.73.23.126c.496-.92.958-1.84 1.453-2.761.132-.254.198-.699.627-.54.495.19.231.571.1.857-.76 1.556-1.354 3.206-2.311 4.666-.198.223-.231.572-.033.794.528-.984 1.023-1.873 1.518-2.762.165-.285.297-.73.726-.571.528.222.198.635.066.952-.792 1.524-1.584 3.016-2.376 4.54a1.795 1.795 0 0 0-.165 1.587c.264-.54 1.881-4.063 2.475-3.65.264.19.1.412-.033.634-.759 1.492-1.551 2.952-2.31 4.444-.528.477-.825.921-.726 1.715ZM37.607 29.758c-.165-2.476 1.42-4.54 2.476-6.667 3.037-5.396-5.413-8.158-2.047-14.221.892-2.19 4.82-5.65 3.83-7.936-.793-.73.527-1.333 1.023-.603.462.698.627 1.555.495 2.38-.562 4.064-6.206 7.62-2.773 11.778a26.716 26.716 0 0 1 1.98 3.015c1.123 2 1.189 4.413.133 6.444-1.387 2.92-3.4 5.556-1.453 8.73 1.32 2.413 3.202 4.92 2.245 7.777-.198.54-.396 1.175-1.156 1.175-.759 0-1.056-.603-1.122-1.175-.264-2.666-1.683-4.92-2.904-7.237-.562-1.08-.826-2.286-.727-3.46Zm-11.982-.096c.034-2.54 1.65-4.634 2.707-6.856 2.707-5.365-5.842-7.968-1.947-14.38 1.023-2.19 4.423-4.952 3.63-7.46-.825-.699.496-1.334.99-.635.463.762.66 1.619.496 2.476-.594 3.904-6.008 7.396-2.938 11.428.627.889 1.288 1.777 1.849 2.73 1.32 2.127 1.617 4.38.56 6.698-1.683 3.619-3.663 6-1.122 9.84 1.354 2.096 2.608 4.667 1.75 7.175-.198.476-.462.952-1.09.984-.726.031-.924-.667-1.122-1.175-.297-4-3.796-6.888-3.763-10.825Zm23.832.064c-.132-2.38 1.42-4.412 2.443-6.476 3.532-7.396-8.252-7.682.594-18.253.66-1.047 1.848-2.825 1.221-4.031-.198-.286-.528-.572-.033-.826 1.485-.634 1.716 2.032 1.485 2.953-.759 3.777-5.908 7.3-2.838 11.237a40.529 40.529 0 0 1 1.947 2.889c1.255 2 1.387 4.444.363 6.539-1.551 3.428-3.598 5.777-1.221 9.491 1.386 2.223 2.905 4.984 1.782 7.62-.165.412-.462.793-.99.793-.924-.096-1.089-1.175-1.287-1.905-.231-3.682-3.73-6.285-3.466-10.031Z" fill="#ffffff"/><path d="M100.289 35.027c2.146-1.524 3.136-8.57 4.621-8.095.396.127.462.508.429.858.132 8.793-8.483 17.84-17.362 11.586-4.258-2.635-6.733-8.317-6.04-13.078.132-.604 1.98-3.968 2.475-4.19-.693 1.618-.759 3.396-1.518 4.983l.264.127c.693-1.428 1.254-2.889 1.882-4.349.099-.254.198-.698.594-.54.396.16.132.54.033.794a339.872 339.872 0 0 1-1.948 5.27c-.198.508-.33 1.015.198 1.587.826-2 1.453-3.81 2.377-5.682.132-.286.264-.73.726-.508.363.19.1.54 0 .825-.924 2.095-1.683 4.254-2.376 6.412a1.628 1.628 0 0 0 .099 1.46c.132.191.165.508.462.477.297-.032.264-.35.33-.572l2.41-7.047c.164-.317.197-1.08.726-.952.528.286 0 1.047-.034 1.492-.165 1.206-3.498 8.983-2.178 9.047.396.095.396-.318.462-.54.825-2.666 2.013-5.206 2.938-7.84.099-.318.099-.89.66-.73.495.158.231.666.132.983-.858 2.603-1.75 5.206-2.64 7.81-.133.603-.66 1.714.197 1.936.364.063.397-.35.463-.603.627-2.889 1.88-5.587 2.904-8.38.1-.286.132-.826.594-.7.528.128.264.636.165.953-.759 2.444-1.551 4.857-2.31 7.27-.066.793-.924 2.38.165 2.73.528.127.594-.318.66-.635.76-2.984 1.782-5.905 2.839-8.825.099-.254.099-.698.528-.603.396.095.297.508.23.793-.824 3.016-1.749 6-2.442 9.047-.099.445-.132.921.495 1.048s.595-.413.694-.762c.792-2.92 1.485-5.84 2.607-8.666.132-.35.066-.984.66-.794.529.16.264.699.165 1.08-.726 2.761-1.617 5.46-2.145 8.285-.066.35-.363.889.33.984.627.095.957-.222 1.09-.825.66-2.572 1.286-5.143 2.31-7.587.099-.254.165-.699.56-.603.397.095.331.54.232.889-.561 2.063-1.155 4.126-1.683 6.19-.1.317-.496.825-.1 1.015.397.19.793-.285 1.09-.603.924-2.317 1.485-4.793 2.409-7.11.099-.318.132-.794.594-.699.463.095.298.54.199.857-.331 1.556-.793 3.143-1.222 4.73Z" fill="#ffffff"/></svg>