<?xml version="1.0" encoding="utf-8"?>
<svg viewBox="1.331 11.97 681.872 121.964" xmlns="http://www.w3.org/2000/svg">
  <g transform="matrix(3.8285000324249268, 0, 0, 3.8285000324249268, 425.5943908691406, 79.72428894042966)" id="115194">
    <g style="" vector-effect="non-scaling-stroke">
      <g transform="matrix(1 0 0 1 -49.9815 1.1165)">
        <path style="stroke: none; stroke-width: 1; stroke-dasharray: none; stroke-linecap: butt; stroke-dashoffset: 0; stroke-linejoin: miter; stroke-miterlimit: 4; fill-rule: nonzero; opacity: 1; fill: rgba(255, 255, 255, 0.97);" transform=" translate(-15.0185, -8.6165)" d="M 5.545 4.342 L 1.32 10.12 h 4.39 v 0.868 H 0 v -0.768 l 4.225 -5.778 H 0.595 v -0.868 h 4.95 v 0.768 Z m 7.13 -0.768 h 1.023 V 7.18 a 16.636 16.636 0 0 0 0.33 3.84 h -0.99 l -0.231 -1.436 c -0.462 0.835 -1.452 1.57 -2.41 1.57 c -1.32 0 -1.848 -1.135 -1.848 -2.405 V 3.574 h 1.023 V 8.45 c 0 0.701 0 1.837 0.892 1.837 c 1.023 0 2.211 -1.17 2.211 -3.674 v -3.04 Z m 4.918 0.7 c 0.627 -0.567 0.957 -0.834 1.783 -0.834 c 1.287 0 2.97 1.002 2.97 3.908 c 0 2.839 -1.815 3.807 -3.003 3.807 c -0.562 0 -1.09 -0.134 -1.552 -0.434 v 3.14 h -1.023 v -7.55 a 8.983 8.983 0 0 0 -0.363 -2.805 l 0.99 -0.134 l 0.198 0.902 Z m 0.198 5.411 c 0.381 0.354 0.87 0.566 1.386 0.602 c 1.222 0 2.113 -1.07 2.113 -2.973 c 0 -2.438 -1.254 -3.006 -1.947 -3.006 c -0.826 0 -1.288 0.602 -1.585 1.303 l 0.033 4.074 Z m 7.559 -5.744 a 5.76 5.76 0 0 1 2.112 -0.501 c 1.387 0 2.245 1.169 2.245 2.405 V 9.05 c 0 0.668 0.1 1.37 0.33 2.004 l -0.957 0.133 l -0.264 -0.935 c -0.216 0.28 -0.49 0.506 -0.805 0.662 a 2.29 2.29 0 0 1 -1.01 0.24 c -1.387 0 -2.18 -1.102 -2.18 -2.438 c 0 -1.436 0.86 -2.672 2.344 -2.672 c 0.529 0.033 1.057 0.134 1.552 0.367 v -0.7 c 0 -0.836 -0.495 -1.404 -1.255 -1.404 c -0.66 0 -1.254 0.3 -1.848 0.568 l -0.264 -0.935 Z m 3.334 3.34 c -0.43 -0.2 -0.924 -0.334 -1.387 -0.368 c -1.056 0 -1.452 0.902 -1.452 1.87 c 0 0.702 0.363 1.504 1.155 1.504 c 0.793 0 1.288 -0.668 1.717 -1.27 V 7.282" stroke-linecap="round"/>
      </g>
      <g transform="matrix(1 0 0 1 -16.8585 -0.002)">
        <path style="stroke: rgb(255, 255, 255); stroke-width: 1; stroke-dasharray: none; stroke-linecap: butt; stroke-dashoffset: 0; stroke-linejoin: miter; stroke-miterlimit: 4; fill-rule: nonzero; opacity: 1; paint-order: fill; fill: rgba(255, 255, 255, 0.97);" transform=" translate(-48.1415, -7.498)" d="M 35.78 0 v 14.996 M 60.503 0 v 14.996" stroke-linecap="round"/>
      </g>
      <g transform="matrix(1 0 0 1 -17.057 -0.1865)">
        <path style="stroke: none; stroke-width: 1; stroke-dasharray: none; stroke-linecap: butt; stroke-dashoffset: 0; stroke-linejoin: miter; stroke-miterlimit: 4; fill-rule: nonzero; opacity: 1; fill: rgba(255, 255, 255, 0.97);" transform=" translate(-47.943, -7.3135)" d="M 42.48 11.021 h -1.023 v -3.74 a 15.664 15.664 0 0 0 -0.33 -3.707 h 0.99 l 0.231 1.369 a 3.023 3.023 0 0 1 1.062 -1.08 a 2.978 2.978 0 0 1 1.447 -0.423 c 1.155 0 1.782 1.069 1.782 2.338 v 5.21 h -1.023 v -4.91 c 0 -0.701 0 -1.77 -0.891 -1.77 c -0.99 0 -2.212 1.002 -2.212 3.607 v 3.106 h -0.033 Z m 7.592 -7.08 a 5.76 5.76 0 0 1 2.113 -0.501 c 1.386 0 2.244 1.169 2.244 2.405 V 9.05 c 0 0.668 0.1 1.37 0.33 2.004 l -0.957 0.133 l -0.264 -0.935 a 2.293 2.293 0 0 1 -1.815 0.902 c -1.387 0 -2.18 -1.102 -2.18 -2.438 c 0 -1.436 0.86 -2.672 2.345 -2.672 c 0.528 0.033 1.056 0.134 1.518 0.367 V 5.71 c 0 -0.835 -0.495 -1.403 -1.254 -1.403 c -0.66 0 -1.255 0.3 -1.849 0.568 l -0.23 -0.935 Z m 3.334 3.34 c -0.43 -0.2 -0.924 -0.334 -1.386 -0.368 c -1.057 0 -1.453 0.902 -1.453 1.87 c 0 0.702 0.363 1.504 1.155 1.504 c 0.793 0 1.288 -0.668 1.684 -1.27 V 7.281 Z" stroke-linecap="round"/>
      </g>
      <g transform="matrix(1 0 0 1 32.4215 -0.2195)">
        <path style="stroke: none; stroke-width: 1; stroke-dasharray: none; stroke-linecap: butt; stroke-dashoffset: 0; stroke-linejoin: miter; stroke-miterlimit: 4; fill-rule: nonzero; opacity: 1; fill: rgba(255, 255, 255, 0.97);" transform=" translate(-97.4215, -7.2805)" d="M 67.039 4.275 c 0.627 -0.568 0.957 -0.835 1.815 -0.835 c 1.287 0 2.938 1.002 2.938 3.908 c 0 2.839 -1.816 3.807 -3.004 3.807 c -0.561 0 -1.09 -0.134 -1.584 -0.434 v 3.14 H 66.18 v -7.55 a 8.983 8.983 0 0 0 -0.364 -2.805 l 0.99 -0.134 l 0.232 0.902 Z m 0.198 5.41 c 0.38 0.354 0.87 0.566 1.386 0.602 c 1.221 0 2.146 -1.07 2.146 -2.973 c 0 -2.438 -1.255 -3.006 -1.948 -3.006 c -0.825 0 -1.287 0.602 -1.584 1.303 v 4.074 Z m 9.308 -8.115 h -2.08 V 0.7 h 3.103 v 10.32 h -1.023 V 1.57 Z m 6.47 2.37 a 5.76 5.76 0 0 1 2.112 -0.5 c 1.386 0 2.245 1.169 2.245 2.405 V 9.05 c 0 0.668 0.099 1.37 0.33 2.004 l -0.958 0.133 l -0.264 -0.935 c -0.215 0.28 -0.49 0.506 -0.805 0.662 a 2.29 2.29 0 0 1 -1.01 0.24 c -1.387 0 -2.179 -1.102 -2.179 -2.438 c 0 -1.436 0.858 -2.672 2.344 -2.672 c 0.528 0.033 1.056 0.134 1.551 0.367 v -0.7 c 0 -0.836 -0.495 -1.404 -1.254 -1.404 c -0.66 0 -1.254 0.3 -1.849 0.568 l -0.264 -0.935 Z m 3.333 3.34 a 4.088 4.088 0 0 0 -1.386 -0.367 c -1.056 0 -1.452 0.902 -1.452 1.87 c 0 0.702 0.363 1.504 1.155 1.504 s 1.287 -0.668 1.716 -1.27 V 7.282 h -0.033 Z m 5.546 3.741 H 90.87 v -3.74 a 15.658 15.658 0 0 0 -0.33 -3.707 h 0.99 l 0.231 1.369 a 3.022 3.022 0 0 1 1.063 -1.08 a 2.978 2.978 0 0 1 1.446 -0.423 c 1.155 0 1.782 1.069 1.782 2.338 v 5.21 h -1.056 v -4.91 c 0 -0.7 0 -1.77 -0.924 -1.77 c -0.99 0 -2.178 1.002 -2.178 3.607 v 3.106 Z m 12.047 -6.58 h -2.64 v 4.243 c 0 0.734 0 1.603 0.957 1.603 c 0.792 0 1.254 -0.668 1.551 -1.303 l 0.991 0.267 c -0.496 1.069 -1.321 1.937 -2.575 1.937 c -1.254 0 -1.947 -0.567 -1.947 -2.805 V 4.475 h -1.585 v -0.868 h 1.585 V 1.302 h 1.023 v 2.272 h 2.64 v 0.868 Z m 3.796 -0.5 c 0.66 -0.3 1.387 -0.468 2.113 -0.501 c 1.386 0 2.244 1.169 2.244 2.405 V 9.05 c 0 0.668 0.099 1.37 0.33 2.004 l -0.957 0.133 l -0.264 -0.935 a 2.292 2.292 0 0 1 -1.815 0.902 c -1.387 0 -2.179 -1.102 -2.179 -2.438 c 0 -1.436 0.858 -2.672 2.344 -2.672 c 0.528 0.033 1.056 0.134 1.551 0.367 v -0.7 c 0 -0.836 -0.495 -1.404 -1.254 -1.404 c -0.66 0 -1.254 0.3 -1.849 0.568 l -0.264 -0.935 Z m 3.334 3.34 a 4.066 4.066 0 0 0 -1.386 -0.368 c -1.056 0 -1.453 0.902 -1.453 1.87 c 0 0.702 0.364 1.504 1.156 1.504 c 0.792 0 1.287 -0.668 1.716 -1.27 V 7.282 h -0.033 Z m 10.133 2.538 c -0.726 0.802 -1.485 1.37 -2.607 1.37 c -1.353 0 -3.169 -0.836 -3.169 -3.808 s 1.651 -3.941 3.136 -3.941 c 1.221 0 2.046 0.668 2.707 1.67 l -0.892 0.601 c -0.363 -0.735 -0.891 -1.37 -1.815 -1.37 c -1.056 0 -2.113 0.769 -2.113 2.973 c 0 2.305 1.189 3.006 2.113 3.006 c 0.825 0 1.452 -0.635 1.947 -1.236 l 0.693 0.735 Z m 2.707 -9.118 h 1.023 v 3.941 a 2.808 2.808 0 0 1 2.212 -1.235 c 0.891 0 1.881 0.267 1.881 3.34 v 4.274 h -1.023 V 6.68 c 0 -0.668 0 -2.372 -0.924 -2.372 c -0.759 0 -1.452 0.702 -1.783 1.336 c -0.396 0.835 -0.363 1.67 -0.363 2.605 v 2.772 h -1.023 V 0.701 Z" stroke-linecap="round"/>
      </g>
    </g>
  </g>
  <g transform="matrix(1, 0, 0, 1, 64.5742416381836, 69.12078857421872)" id="319424">
    <g style="" vector-effect="non-scaling-stroke">
      <g transform="matrix(1 0 0 1 -13.8822 25.6253)">
        <path style="stroke: none; stroke-width: 1; stroke-dasharray: none; stroke-linecap: butt; stroke-dashoffset: 0; stroke-linejoin: miter; stroke-miterlimit: 4; fill-rule: nonzero; opacity: 1; fill: rgb(255, 255, 255);" transform=" translate(-41.6178, -75.6253)" d="M 3.049 51.439 c 25.548 -0.508 50.6 0.095 76.083 0.825 c 1.518 0.159 4.456 -0.254 4.06 2 c 0.429 6.571 -2.377 12.063 -6.173 17.205 c -5.15 7.143 -11.817 13.143 -20.333 16.38 c -0.627 0.127 -1.056 0.73 -0.957 1.334 c 0.033 4.666 -2.08 9.3 -7.328 10.063 a 36.99 36.99 0 0 1 -12.675 0.38 c -5.611 -0.857 -8.219 -4.539 -7.889 -9.777 c 0.066 -0.889 -0.198 -1.174 -1.023 -1.397 C 16.747 85.883 7.241 79.66 3.61 69.947 C 1.43 64.422 -0.153 58.804 0.012 52.836 c 0.033 -1.27 0.165 -1.397 1.452 -1.365 c 0.627 -0.032 1.287 -0.032 1.585 -0.032 Z m 42.018 36.22 c 2.212 0.254 2.608 0.032 3.136 -1.81 c 0.792 -2.698 2.08 -5.237 3.07 -7.904 c 0.066 -0.222 0.231 -0.444 0.528 -0.412 c 0.792 0.19 0 1.777 -0.198 2.285 a 55.724 55.724 0 0 0 -2.278 6.317 c -0.099 0.318 -0.33 0.73 0.198 0.953 c 0.529 0.222 1.585 -0.286 1.684 -0.794 c 0.594 -3.143 1.815 -6.127 2.839 -9.142 c 0.165 -0.508 0.099 -1.524 0.957 -1.238 c 0.759 0.254 0.198 1.079 0.033 1.618 c -0.792 2.603 -1.849 5.111 -2.344 7.778 c -0.528 1.206 0.33 1.301 1.222 0.635 c 0.363 -0.222 0.33 -0.572 0.429 -0.89 a 1207.4 1207.4 0 0 0 2.74 -10.22 c 0.197 -0.413 0.23 -1.302 0.858 -1.207 c 0.462 0.159 0.23 0.762 0.198 1.111 c -0.793 3.111 -1.618 6.254 -2.377 9.364 c -0.099 0.382 -0.528 1.016 -0.066 1.175 c 0.594 0.19 1.221 -0.19 1.584 -0.73 c 1.156 -3.905 1.915 -7.904 3.136 -11.809 c 0.1 -0.317 0.198 -0.762 0.66 -0.603 c 0.462 0.159 0.264 0.54 0.198 0.857 L 58.8 82.866 c -0.1 0.38 -0.264 0.761 -0.066 1.237 c 0.627 -0.38 1.32 -0.507 1.485 -1.333 c 0.825 -3.873 1.485 -7.777 2.509 -11.618 c 0.066 -0.254 0.297 -0.413 0.56 -0.35 c 0.562 0.128 0.364 0.763 0.265 1.144 l -1.98 9.681 c -0.034 0.255 -0.33 0.572 0.032 0.73 c 0.562 0.16 0.892 -0.57 0.958 -0.983 c 1.155 -4.222 1.98 -8.508 3.003 -12.762 c 0.1 -0.38 0.033 -1.047 0.694 -0.92 c 0.56 0.127 0.33 0.667 0.23 1.047 c -0.726 3.715 -1.386 7.46 -2.409 11.143 c -0.066 0.285 -0.297 0.571 -0.066 0.857 c 0.792 -0.381 0.858 -0.381 0.99 -1.556 c 0.495 -4.063 1.783 -8 2.344 -12.063 c 0.033 -0.254 0.033 -0.634 0.396 -0.603 c 0.429 0.032 0.33 0.445 0.363 0.73 c 0.033 2.35 -0.76 4.603 -1.155 6.92 c -0.297 1.62 -0.528 3.239 -0.826 4.984 a 1.447 1.447 0 0 0 1.123 -1.174 c 1.056 -4.349 1.815 -8.761 3.103 -13.047 c 0.099 -0.286 0.263 -0.635 0.66 -0.476 c 0.363 0.159 0.132 0.476 0.099 0.73 c -0.627 2.952 -1.222 5.904 -1.816 8.825 c 1.287 -3.936 1.783 -8.031 3.037 -11.968 c 0.099 -0.253 0.231 -0.571 0.594 -0.444 c 0.363 0.127 0.297 0.444 0.198 0.698 c -1.188 4.476 -1.584 8.603 -2.872 13.206 c 0.76 -0.73 1.453 -1.206 1.552 -2 c 0.363 -2.857 1.254 -5.619 1.782 -8.444 c 0.396 -2.095 0.957 -4.158 1.453 -6.254 c 0.066 -0.317 0.165 -0.793 0.627 -0.666 c 0.462 0.127 0.264 0.571 0.198 0.889 l -1.882 8.92 c 1.354 -2.825 1.354 -6.158 2.509 -9.079 c 0.165 -0.508 0.165 -1.492 0.825 -1.301 c 0.76 0.19 0.132 0.984 0 1.491 c -0.924 3.651 -1.617 7.048 -2.41 10.889 c 0.364 -0.286 0.595 -0.667 0.694 -1.111 c 0.825 -4.19 2.541 -8.19 3.07 -12.444 c 0.032 -0.286 0.065 -0.698 0.495 -0.635 c 1.386 0.476 -1.552 8.984 -1.783 10.54 c 1.882 -3.048 3.202 -6.445 3.334 -10.032 c 0.033 -0.825 -0.231 -1.206 -1.155 -1.27 c -11.322 -0.571 -22.644 -0.603 -33.965 -0.92 c -14.26 -0.223 -28.52 -0.318 -42.779 -0.699 c -0.693 -0.032 -0.89 0.159 -0.759 0.794 c 0.627 3.27 1.222 6.54 2.047 9.745 c 2.41 9.333 7.889 16.19 17.197 20.03 c 1.782 0.73 1.75 0.763 2.707 -0.92 c 0.396 -0.666 0.56 -1.46 1.254 -2 c 0.033 1.111 -0.561 2.064 -0.957 3.048 c -0.133 0.349 -0.595 0.698 0 1.047 c 0.594 0.35 0.825 -0.158 1.056 -0.507 a 42.402 42.402 0 0 0 2.277 -3.651 c 0.198 -0.318 0.297 -0.984 0.76 -0.762 c 0.396 0.19 -0.034 0.73 -0.198 1.08 c -0.66 1.237 -1.354 2.475 -2.014 3.682 c -0.165 0.317 -0.43 0.635 0.099 0.825 c 0.396 0.159 0.858 0.444 1.188 -0.127 c 1.023 -1.746 2.08 -3.46 3.103 -5.206 c 0.165 -0.286 0.198 -0.889 0.726 -0.635 c 0.396 0.19 0.1 0.635 -0.033 0.889 a 720.71 720.71 0 0 1 -2.607 4.889 c -0.132 0.285 -0.495 0.603 0 0.857 c 0.33 0.222 0.825 0.095 0.99 -0.254 l 3.466 -5.333 c 0.198 -0.286 0.198 -0.953 0.66 -0.73 c 0.56 0.254 0.066 0.761 -0.033 1.142 c -0.066 0.19 -0.165 0.381 -0.297 0.54 c -0.825 1.365 -1.684 2.73 -2.476 4.127 c -0.165 0.285 -0.66 0.698 -0.033 1.016 c 0.495 0.254 0.924 0.127 1.254 -0.381 c 1.156 -1.905 2.311 -3.81 3.466 -5.683 c 0.132 -0.254 0.165 -0.698 0.594 -0.54 c 0.628 0.255 -0.132 1.239 -0.297 1.62 c -0.858 1.523 -1.716 3.015 -2.574 4.54 c -0.165 0.285 -0.561 0.666 0.033 0.92 c 0.396 0.158 0.858 0.158 1.056 -0.35 c 0.99 -2.475 3.004 -4.444 3.928 -6.92 c 0.066 -0.19 0.198 -0.38 0.462 -0.349 c 1.485 0.317 -2.674 5.904 -3.004 6.984 c -0.165 0.317 -0.528 0.793 0.165 0.984 c 0.528 0.159 1.123 0.412 1.453 -0.318 c 1.254 -2.444 2.541 -4.825 3.763 -7.269 c 0.132 -0.254 0.297 -0.635 0.66 -0.476 c 0.528 0.254 0.099 0.793 -0.033 1.174 c -1.056 1.905 -1.75 4 -2.806 5.905 c -0.66 1.174 -0.462 1.396 0.891 1.365 c 0.43 0.031 0.825 -0.254 0.892 -0.667 c 0.23 -0.635 0.528 -1.238 0.825 -1.873 c 0.858 -1.777 1.683 -3.555 2.574 -5.333 c 0.231 -0.476 0.066 -1.492 0.76 -1.301 c 1.452 0.254 -2.311 6.92 -2.674 7.872 c -0.825 1.238 -0.132 1.524 1.122 1.238 c 0.363 -0.031 0.66 -0.317 0.627 -0.666 c 0 -0.477 0.1 -0.953 0.33 -1.397 c 1.156 -2.127 2.212 -4.317 3.103 -6.571 c 0.132 -0.286 0.264 -0.73 0.726 -0.508 c 0.363 0.159 0.231 0.54 0.132 0.794 c -0.891 2.57 -2.112 5.206 -3.3 7.904 Z M 40.15 90.42 c -0.627 0.285 -0.594 0.73 -0.759 1.015 c -0.23 0.35 -0.198 1.175 -0.792 0.953 c -0.858 -0.381 1.353 -2.095 -0.528 -2.095 c -2.476 -0.064 -4.885 -0.635 -7.328 -0.92 c -0.429 -0.064 -0.924 -0.255 -1.023 0.475 c -0.297 2.952 1.617 6.063 4.62 6.92 c 3.665 1.016 7.428 0.984 11.19 0.445 a 1.217 1.217 0 0 0 1.024 -0.889 c 0.627 -1.873 1.287 -3.714 1.914 -5.587 c 0.43 -0.698 -0.396 -0.984 -0.858 -0.508 c -0.891 1.524 -1.221 3.301 -1.716 4.984 c -0.165 0.508 -0.33 1.397 -0.958 1.238 c -1.188 -0.286 0.99 -4.349 1.123 -5.27 c 0.099 -0.254 0.528 -0.666 0 -0.857 c -0.66 -0.285 -1.288 0.223 -1.387 0.858 c -0.594 1.65 -1.188 3.333 -1.815 4.983 c -0.1 0.286 -0.132 0.699 -0.561 0.635 c -1.354 -0.54 1.155 -4.603 1.42 -5.682 c 0.098 -0.222 0.263 -0.54 -0.133 -0.698 c -1.42 -0.635 -1.848 4.507 -2.806 4.412 c -1.089 -0.444 0.496 -2.73 0.727 -3.46 c 0.099 -0.254 0.495 -0.572 0.033 -0.762 c -0.628 -0.286 -1.09 1.65 -1.42 2.063 c -0.132 0.254 -0.198 0.667 -0.627 0.54 c -0.726 -0.286 0.462 -2.063 0.66 -2.793 Z m 9.969 5.714 c 0.89 -2.223 1.782 -4.445 2.805 -6.603 c 0.132 -0.318 -0.066 -0.445 -0.396 -0.381 c -0.363 0.032 -0.66 0.254 -0.825 0.571 c -0.693 2 -1.353 3.968 -2.013 5.968 c -0.1 0.159 -0.166 0.413 0.429 0.445 Z m -2.08 0.476 c 0.165 -0.032 0.297 -0.19 0.33 -0.35 c 0.396 -2.063 1.387 -3.904 2.047 -5.84 c 0.066 -0.223 0.33 -0.54 -0.066 -0.699 c -0.264 -0.095 -0.594 0.032 -0.693 0.286 a 335.365 335.365 0 0 0 -1.915 6.127 c -0.066 0.253 -0.066 0.476 0.297 0.476 Z" stroke-linecap="round"/>
      </g>
      <g transform="matrix(1 0 0 1 12.2548 -2.0226)">
        <path style="stroke: none; stroke-width: 1; stroke-dasharray: none; stroke-linecap: butt; stroke-dashoffset: 0; stroke-linejoin: miter; stroke-miterlimit: 4; fill-rule: nonzero; opacity: 1; fill: rgb(255, 255, 255);" transform=" translate(-67.7548, -47.9774)" d="M 87.02 82.485 c 0.264 -6 0.627 -12.635 1.023 -19.3 c 0.264 -4.286 0.528 -8.572 0.726 -12.857 c 0.132 -3.016 -0.957 -5.492 -2.805 -7.746 c -2.047 -2.571 -4.291 -5.015 -6.008 -7.84 c -9.308 -13.556 4.192 -34.285 20.432 -26.54 c 11.586 6.286 12.906 22.73 3.763 31.618 c -0.99 1.047 -1.815 2.253 -2.806 3.3 c -1.551 1.62 -2.046 3.524 -2.211 5.651 c -0.33 4.476 -0.264 8.92 -0.165 13.396 c 0.198 6.825 0.56 13.65 0.759 20.475 c 0.198 3.841 0.396 8.095 -2.145 11.333 c -1.915 2.412 -5.117 2.666 -7.361 0.508 c -3.136 -3.46 -3.169 -7.301 -3.202 -12 Z m 3.004 -9.555 c 0.792 -1.334 1.485 -2.477 2.145 -3.588 c 0.165 -0.253 0.33 -0.634 0.693 -0.444 c 0.364 0.19 0.066 0.54 -0.066 0.794 c -1.056 1.682 -1.815 3.523 -2.673 5.27 c -0.264 0.507 -0.363 1.078 -0.264 1.65 l 2.31 -3.936 c 0.165 -0.254 0.297 -0.635 0.693 -0.413 c 0.496 0.19 -0.33 1.397 -0.462 1.746 c -0.99 1.524 -1.65 3.238 -2.475 4.825 c -0.231 0.444 -0.33 0.984 -0.198 1.46 c 0.759 -1.587 1.386 -2.984 2.046 -4.349 c 0.1 -0.222 0.231 -0.54 0.594 -0.444 c 0.363 0.095 0.264 0.38 0.165 0.603 c -0.858 1.873 -1.452 3.904 -2.64 5.619 c -0.2 0.268 -0.34 0.572 -0.414 0.894 a 2.348 2.348 0 0 0 -0.015 0.979 c 0.33 -0.096 0.33 -0.318 0.429 -0.508 a 184.938 184.938 0 0 1 1.65 -3.746 c 0.1 -0.254 0.231 -0.54 0.594 -0.413 c 0.363 0.127 0.198 0.381 0.132 0.603 c -0.759 1.905 -1.485 3.81 -2.343 5.65 c -0.33 0.73 -0.297 1.302 0.066 2.191 c 0.594 -1.397 1.056 -2.54 1.584 -3.682 c 0.165 -0.35 0.198 -0.953 0.792 -0.73 c 0.495 0.19 0.198 0.666 0.066 0.984 c -0.627 1.492 -1.254 3.016 -1.947 4.507 c -0.132 0.318 -0.396 0.635 0 1.143 c 0.462 -1.016 0.825 -1.904 1.254 -2.761 c 0.132 -0.318 0.198 -0.858 0.726 -0.667 c 0.528 0.19 0.198 0.666 0.066 0.984 a 93.022 93.022 0 0 1 -1.32 3.206 c -0.264 0.603 -0.264 1.08 0.297 1.492 c 0.66 -0.476 1.188 -3.904 2.112 -3.555 c 0.397 0.158 0.298 0.476 0.199 0.793 c -0.528 1.302 -1.09 2.381 -1.123 3.905 c 0.694 -0.54 0.264 -1.968 1.222 -1.968 c 1.023 0.19 -0.528 2.127 0.132 2.476 c 0.23 0.127 0.594 0.095 0.693 -0.096 c 0.396 -0.825 1.353 -1.11 1.782 -1.904 c 1.783 -3.492 0.925 -7.555 0.958 -11.301 c -0.232 -9.872 -1.024 -19.745 -0.496 -29.617 c 0.198 -3.556 1.189 -6.762 3.499 -9.587 c 2.707 -3.587 6.239 -7.015 7.031 -11.523 c 2.607 -11.047 -7.262 -25.49 -19.772 -18.951 c -9.77 4.73 -10.364 17.84 -3.96 25.427 c 1.55 2.031 3.168 4.063 4.752 6.095 c 0.43 0.571 0.66 1.618 1.75 0.444 c 0.132 0.762 -0.561 1.206 -0.363 1.841 c 0.693 -0.127 0.462 -1.555 1.254 -1.174 c 0.528 0.254 -0.198 0.984 -0.33 1.523 c -0.132 0.54 -0.726 1.048 -0.198 1.842 c 0.33 -0.604 0.561 -1.143 0.858 -1.62 c 0.165 -0.285 0.33 -0.825 0.825 -0.603 c 0.43 0.223 0.033 0.604 -0.099 0.89 c -0.396 0.888 -0.825 1.777 -1.221 2.666 c 0.297 -0.222 0.528 -0.508 0.726 -0.826 c 0.198 -0.254 0.297 -0.761 0.726 -0.571 c 0.43 0.19 0.1 0.571 -0.033 0.857 c -0.363 1.111 -1.089 1.81 -1.056 3.111 a 8.03 8.03 0 0 1 0.825 -1.016 c 0.33 -0.285 0.495 -1.08 1.09 -0.635 c 0.495 0.35 -0.166 0.762 -0.397 1.08 c -1.287 1.873 -1.551 2.507 -1.419 3.777 c 0.462 -0.793 0.891 -1.555 1.353 -2.317 c 0.165 -0.254 0.363 -0.572 0.76 -0.286 c 0.297 0.222 0.132 0.508 -0.034 0.73 c -0.957 1.302 -1.452 2.857 -2.145 4.286 c -0.132 0.285 -0.396 0.54 -0.099 1.047 c 0.462 -0.984 0.858 -1.84 1.287 -2.666 c 0.066 -0.159 0.132 -0.35 0.363 -0.318 c 0.925 0.254 -1.947 4.952 -1.914 5.841 c 0.825 -0.349 1.254 -3.46 2.245 -2.92 c 0.495 0.317 -0.1 0.793 -0.232 1.143 l -2.277 4.73 l 0.23 0.126 c 0.496 -0.92 0.958 -1.84 1.453 -2.761 c 0.132 -0.254 0.198 -0.699 0.627 -0.54 c 0.495 0.19 0.231 0.571 0.1 0.857 c -0.76 1.556 -1.354 3.206 -2.311 4.666 c -0.198 0.223 -0.231 0.572 -0.033 0.794 c 0.528 -0.984 1.023 -1.873 1.518 -2.762 c 0.165 -0.285 0.297 -0.73 0.726 -0.571 c 0.528 0.222 0.198 0.635 0.066 0.952 c -0.792 1.524 -1.584 3.016 -2.376 4.54 a 1.795 1.795 0 0 0 -0.165 1.587 c 0.264 -0.54 1.881 -4.063 2.475 -3.65 c 0.264 0.19 0.1 0.412 -0.033 0.634 c -0.759 1.492 -1.551 2.952 -2.31 4.444 c -0.528 0.477 -0.825 0.921 -0.726 1.715 Z M 37.607 29.758 c -0.165 -2.476 1.42 -4.54 2.476 -6.667 c 3.037 -5.396 -5.413 -8.158 -2.047 -14.221 c 0.892 -2.19 4.82 -5.65 3.83 -7.936 c -0.793 -0.73 0.527 -1.333 1.023 -0.603 c 0.462 0.698 0.627 1.555 0.495 2.38 c -0.562 4.064 -6.206 7.62 -2.773 11.778 a 26.716 26.716 0 0 1 1.98 3.015 c 1.123 2 1.189 4.413 0.133 6.444 c -1.387 2.92 -3.4 5.556 -1.453 8.73 c 1.32 2.413 3.202 4.92 2.245 7.777 c -0.198 0.54 -0.396 1.175 -1.156 1.175 c -0.759 0 -1.056 -0.603 -1.122 -1.175 c -0.264 -2.666 -1.683 -4.92 -2.904 -7.237 c -0.562 -1.08 -0.826 -2.286 -0.727 -3.46 Z m -11.982 -0.096 c 0.034 -2.54 1.65 -4.634 2.707 -6.856 c 2.707 -5.365 -5.842 -7.968 -1.947 -14.38 c 1.023 -2.19 4.423 -4.952 3.63 -7.46 c -0.825 -0.699 0.496 -1.334 0.99 -0.635 c 0.463 0.762 0.66 1.619 0.496 2.476 c -0.594 3.904 -6.008 7.396 -2.938 11.428 c 0.627 0.889 1.288 1.777 1.849 2.73 c 1.32 2.127 1.617 4.38 0.56 6.698 c -1.683 3.619 -3.663 6 -1.122 9.84 c 1.354 2.096 2.608 4.667 1.75 7.175 c -0.198 0.476 -0.462 0.952 -1.09 0.984 c -0.726 0.031 -0.924 -0.667 -1.122 -1.175 c -0.297 -4 -3.796 -6.888 -3.763 -10.825 Z m 23.832 0.064 c -0.132 -2.38 1.42 -4.412 2.443 -6.476 c 3.532 -7.396 -8.252 -7.682 0.594 -18.253 c 0.66 -1.047 1.848 -2.825 1.221 -4.031 c -0.198 -0.286 -0.528 -0.572 -0.033 -0.826 c 1.485 -0.634 1.716 2.032 1.485 2.953 c -0.759 3.777 -5.908 7.3 -2.838 11.237 a 40.529 40.529 0 0 1 1.947 2.889 c 1.255 2 1.387 4.444 0.363 6.539 c -1.551 3.428 -3.598 5.777 -1.221 9.491 c 1.386 2.223 2.905 4.984 1.782 7.62 c -0.165 0.412 -0.462 0.793 -0.99 0.793 c -0.924 -0.096 -1.089 -1.175 -1.287 -1.905 c -0.231 -3.682 -3.73 -6.285 -3.466 -10.031 Z" stroke-linecap="round"/>
      </g>
      <g transform="matrix(1 0 0 1 38.0839 -18.2198)">
        <path style="stroke: none; stroke-width: 1; stroke-dasharray: none; stroke-linecap: butt; stroke-dashoffset: 0; stroke-linejoin: miter; stroke-miterlimit: 4; fill-rule: nonzero; opacity: 1; fill: rgb(255, 255, 255);" transform=" translate(-93.5839, -31.7802)" d="M 100.289 35.027 c 2.146 -1.524 3.136 -8.57 4.621 -8.095 c 0.396 0.127 0.462 0.508 0.429 0.858 c 0.132 8.793 -8.483 17.84 -17.362 11.586 c -4.258 -2.635 -6.733 -8.317 -6.04 -13.078 c 0.132 -0.604 1.98 -3.968 2.475 -4.19 c -0.693 1.618 -0.759 3.396 -1.518 4.983 l 0.264 0.127 c 0.693 -1.428 1.254 -2.889 1.882 -4.349 c 0.099 -0.254 0.198 -0.698 0.594 -0.54 c 0.396 0.16 0.132 0.54 0.033 0.794 a 339.872 339.872 0 0 1 -1.948 5.27 c -0.198 0.508 -0.33 1.015 0.198 1.587 c 0.826 -2 1.453 -3.81 2.377 -5.682 c 0.132 -0.286 0.264 -0.73 0.726 -0.508 c 0.363 0.19 0.1 0.54 0 0.825 c -0.924 2.095 -1.683 4.254 -2.376 6.412 a 1.628 1.628 0 0 0 0.099 1.46 c 0.132 0.191 0.165 0.508 0.462 0.477 c 0.297 -0.032 0.264 -0.35 0.33 -0.572 l 2.41 -7.047 c 0.164 -0.317 0.197 -1.08 0.726 -0.952 c 0.528 0.286 0 1.047 -0.034 1.492 c -0.165 1.206 -3.498 8.983 -2.178 9.047 c 0.396 0.095 0.396 -0.318 0.462 -0.54 c 0.825 -2.666 2.013 -5.206 2.938 -7.84 c 0.099 -0.318 0.099 -0.89 0.66 -0.73 c 0.495 0.158 0.231 0.666 0.132 0.983 c -0.858 2.603 -1.75 5.206 -2.64 7.81 c -0.133 0.603 -0.66 1.714 0.197 1.936 c 0.364 0.063 0.397 -0.35 0.463 -0.603 c 0.627 -2.889 1.88 -5.587 2.904 -8.38 c 0.1 -0.286 0.132 -0.826 0.594 -0.7 c 0.528 0.128 0.264 0.636 0.165 0.953 c -0.759 2.444 -1.551 4.857 -2.31 7.27 c -0.066 0.793 -0.924 2.38 0.165 2.73 c 0.528 0.127 0.594 -0.318 0.66 -0.635 c 0.76 -2.984 1.782 -5.905 2.839 -8.825 c 0.099 -0.254 0.099 -0.698 0.528 -0.603 c 0.396 0.095 0.297 0.508 0.23 0.793 c -0.824 3.016 -1.749 6 -2.442 9.047 c -0.099 0.445 -0.132 0.921 0.495 1.048 s 0.595 -0.413 0.694 -0.762 c 0.792 -2.92 1.485 -5.84 2.607 -8.666 c 0.132 -0.35 0.066 -0.984 0.66 -0.794 c 0.529 0.16 0.264 0.699 0.165 1.08 c -0.726 2.761 -1.617 5.46 -2.145 8.285 c -0.066 0.35 -0.363 0.889 0.33 0.984 c 0.627 0.095 0.957 -0.222 1.09 -0.825 c 0.66 -2.572 1.286 -5.143 2.31 -7.587 c 0.099 -0.254 0.165 -0.699 0.56 -0.603 c 0.397 0.095 0.331 0.54 0.232 0.889 c -0.561 2.063 -1.155 4.126 -1.683 6.19 c -0.1 0.317 -0.496 0.825 -0.1 1.015 c 0.397 0.19 0.793 -0.285 1.09 -0.603 c 0.924 -2.317 1.485 -4.793 2.409 -7.11 c 0.099 -0.318 0.132 -0.794 0.594 -0.699 c 0.463 0.095 0.298 0.54 0.199 0.857 c -0.331 1.556 -0.793 3.143 -1.222 4.73 Z" stroke-linecap="round"/>
      </g>
    </g>
  </g>
</svg>