<svg width="24" height="18" viewBox="0 0 24 18" xmlns="http://www.w3.org/2000/svg">
<path d="M23.978 6.00888C23.9526 5.92983 23.9075 5.86281 23.8502 5.81145L20.9371 2.98967C20.9358 2.98836 20.9345 2.98716 20.9333 2.98585C20.8923 2.94372 20.8425 2.90931 20.7855 2.88583C20.7834 2.88493 20.7813 2.88403 20.7791 2.88322C20.7755 2.88182 20.7719 2.88052 20.7682 2.87911C20.7647 2.87781 20.7613 2.8765 20.7577 2.8754C20.7568 2.8751 20.7559 2.8748 20.755 2.8744L12.1369 0.0220543C12.0443 -0.00844416 11.9489 -0.006238 11.8629 0.0220543H11.8628L11.8579 0.0236595C11.8577 0.0237598 11.8575 0.0237598 11.8573 0.0238601L3.24474 2.8744C3.24385 2.8747 3.24296 2.87511 3.24196 2.87541C3.2385 2.87661 3.23513 2.87782 3.23176 2.87912C3.228 2.88052 3.22423 2.88183 3.22057 2.88323C3.21849 2.88404 3.21651 2.88494 3.21443 2.88574C3.16223 2.90721 3.11607 2.93781 3.07714 2.97513C3.07684 2.97543 3.07654 2.97563 3.07634 2.97593C3.07347 2.97874 3.0706 2.98165 3.06773 2.98456L3.06297 2.98938L0.149611 5.81141C0.0922594 5.86278 0.0471886 5.92979 0.0218308 6.00885C-0.0538471 6.24471 0.0735377 6.49803 0.306422 6.57467L2.9378 7.44558V14.6987C2.9378 14.9087 3.07975 15.0849 3.27161 15.1346L11.8575 17.9762C11.8576 17.9762 11.8578 17.9763 11.8579 17.9763L11.863 17.978V17.9779C11.949 18.0062 12.0443 18.0085 12.1371 17.978L20.7283 15.1346C20.9203 15.0848 21.0622 14.9086 21.0622 14.6987V7.44558L23.6936 6.57468C23.9264 6.49803 24.0539 6.2446 23.9782 6.00886L23.978 6.00888ZM11.9999 5.68143L4.80923 3.30145L11.9999 0.921566L19.1907 3.30155L11.9999 5.68143ZM3.4962 3.81169L11.1588 6.34777L8.94745 8.48977L3.54572 6.70201C3.52839 6.69499 3.51056 6.68907 3.49223 6.68436L1.28491 5.95381L3.4962 3.81169ZM3.82615 7.73963L8.9246 9.42707V9.42687C9.07427 9.47603 9.24515 9.44262 9.36697 9.32524L11.5559 7.2051V16.9315L3.82628 14.3732L3.82615 7.73963ZM20.1738 14.3733L12.4443 16.9315V7.20514L14.6332 9.32529C14.755 9.44277 14.9259 9.47608 15.0755 9.42692V9.42712L20.174 7.73967L20.1738 14.3733ZM20.5079 6.68432C20.4895 6.68903 20.4716 6.69505 20.4543 6.70208L15.0525 8.48983L12.8412 6.34783L20.5038 3.81175L22.7153 5.95375L20.5079 6.68432Z"/>
<path d="M13.5174 14.1953C13.5931 14.4312 13.8432 14.5602 14.0761 14.4836L15.6253 13.9709C15.8582 13.8943 15.9856 13.6408 15.91 13.405C15.8342 13.1692 15.5841 13.0401 15.3512 13.1168L13.802 13.6295C13.5691 13.7062 13.4418 13.9595 13.5174 14.1953Z" />
<path d="M17.1294 13.4728L19.1057 12.8187C19.3385 12.7421 19.4659 12.4887 19.3902 12.2529C19.3146 12.017 19.0643 11.888 18.8315 11.9647L16.8552 12.6187C16.6224 12.6953 16.495 12.9488 16.5707 13.1846C16.6464 13.4205 16.8966 13.5495 17.1294 13.4728Z" />
</svg>
