
  <svg width="32" height="32" viewBox="0 0 32 32" fill="none" xmlns="http://www.w3.org/2000/svg">
    <path
      d="M21.2489 12.725C21.2489 10.1057 19.1182 7.975 16.4989 7.975C13.8796 7.975 11.7489 10.1057 11.7489 12.725C11.7489 15.3443 13.8796 17.475 16.4989 17.475C19.1182 17.475 21.2489 15.3443 21.2489 12.725ZM12.6989 12.725C12.6989 10.6301 14.4032 8.925 16.4989 8.925C18.5947 8.925 20.2989 10.6301 20.2989 12.725C20.2989 14.8199 18.5947 16.525 16.4989 16.525C14.4032 16.525 12.6989 14.8199 12.6989 12.725Z"
      fill="#191919"
      stroke="#191919"
      stroke-width="0.05"
    />
    <path
      d="M19.7391 18.765H13.26C10.0701 18.765 7.475 21.3601 7.475 24.55C7.475 24.8123 7.68777 25.025 7.95 25.025H25.0491C25.3113 25.025 25.5241 24.8123 25.5241 24.55C25.5241 21.3601 22.929 18.765 19.7391 18.765ZM24.55 24.075H8.44729C8.68655 21.6312 10.7525 19.715 13.2591 19.715H19.7382C22.2448 19.715 24.3107 21.6312 24.55 24.075Z"
      fill="#191919"
      stroke="#191919"
      stroke-width="0.05"
    />
  </svg>
